<svg xmlns="http://www.w3.org/2000/svg" version="1.1" width="600px" height="600px" viewBox="0 0 200 200" style="overflow:hidden!important;"><defs id="SvgjsDefs17235"></defs><g id="svga-group-wrapper"><g id="svga-group-backs-single"><path id="SvgjsPath17926" d="M0 0h200v200H0V0z" fill="#40c0cb" stroke-width="none" opacity="1"></path><path id="SvgjsPath17927" d="M88.8 158.9s-21.3-3-23.6-17.1c-1.5-9.3 10.5-9.3 14.8-5.5 0 0 3.3-8.7 9.9-7.2 8.4 1.9 9.2 12.7-1.1 29.8zM38.7 51s14.9-16.3 6.8-30.1c-5.3-9.2-14.9-1.5-15.7 4.6 0 0-8.8-5.6-13 0-5.4 7 1.6 17 21.9 25.5zM168 165s-2.6-14.4 1.6-22.7 14.8-4 13.3 4.9c0 0 8.2-2 10.6 4.5 2.3 6.4-10 12.7-25.5 13.3zm6.6-139.5s5.2-1.9 5.9-4.8c.8-3-3-3.5-4.5-1.6 0 0-1.1-2.8-3.1-2.2-1.9.5-2.2 2.6 1.7 8.6z" fill="#14a0ac" stroke-width="none" opacity="1"></path><path id="SvgjsPath17928" d="M125 33.1s-13-1.2-19.2-6.8.1-13.7 7.4-10.3c0 0 .2-7.6 6.3-8 6.2-.5 8.7 11.5 5.5 25.1zm15.9 84.9s3.6-4.2 2.8-7.1c-.8-3-4.4-1.6-4.7.8 0 0-2.4-1.9-3.8-.4s-.6 3.4 5.7 6.7zm12.2 66.9s7.1-.7 9-4.2-2.7-5.4-5.2-3.4c0 0-.5-3.9-3.2-3.8s-3.6 2.7-.6 11.4zm-122.9 5.7s23.3-3.5 29-15.3-9.8-17.2-17.5-10.6c0 0-2.3-12.8-11-11.9s-11.7 9.5-.5 37.8zm3.5-106.7s3.3-12.8-1.5-18.3-11 1.3-9.3 6.7c0 0-7.1-1.6-8.5 3-1.4 4.8 2.3 8.2 19.3 8.6z" fill="#28b0bc" stroke-width="none" opacity="1"></path><path id="SvgjsPath17929" d="M149.4 76.1s-24.7-19.3-16.5-40.8c5.4-14.2 20.6-5.7 23.2 2.7 0 0 11-10 18.2-3.2 9.1 8.6 1.6 24.4-24.9 41.3zm7 29.6s-4.5-12.3-2-20.2 12.4-5.8 12.4 2.3c0 0 6.9-3 10 2.3 3 5.4-6.9 12.7-20.4 15.6zM53.9 143.9s-13-1.2-19.2-6.8.1-13.7 7.4-10.3c0 0 .2-7.6 6.3-8s8.7 11.6 5.5 25.1zm89.6 23.3s-4.6-9.3-3.3-15.7c1.2-6.5 9.3-5.6 10 .8 0 0 5.2-3 8 1s-4.3 10.5-14.7 13.9zM65.3 46s5.8-6.7 4.5-11.4-7-2.5-7.5 1.2c0 0-3.8-3.1-6-.7-2.2 2.4-1 5.6 9 10.9zm-40.7 81.2s4.7-5.4 3.7-9.3-5.7-2-6.1 1c0 0-3.1-2.5-4.9-.6s-.8 4.6 7.3 8.9zm53 60.3s5.2-1.9 5.9-4.8-3-3.5-4.5-1.6c0 0-1.1-2.8-3.1-2.2-1.8.6-2.1 2.7 1.7 8.6zm47.7-12.7s4.7-5.4 3.7-9.3c-1-3.9-5.7-2-6.1 1 0 0-3.1-2.5-4.9-.6-1.9 2-.9 4.6 7.3 8.9zm-22.6-132s4.7-5.4 3.7-9.3-5.7-2-6.1 1c0 0-3.1-2.5-4.9-.6-1.9 2-.9 4.6 7.3 8.9zM77.3 94.4s8.8-4.2 9.6-9.5-5.9-5.6-8.2-2.1c0 0-2.5-4.8-5.8-3.3-3.2 1.4-3.4 5.1 4.4 14.9z" fill="#34b8c3" stroke-width="none" opacity="1"></path></g><g id="svga-group-humanwrap-move" transform="matrix(1,0,0,1,0,0)"><g id="svga-group-humanwrap" transform="matrix(1,0,0,1,0,0)"><g id="svga-group-hair-back-move" transform="matrix(1,0,0,1,0,0)"><g id="svga-group-hair-back" transform="matrix(1,0,0,1,0,0)"><path id="SvgjsPath18003" d="M161 137.8c-.7-.5-1.4-1.1-2-1.6-2.1-4.4-4.2-8.8-6.1-13.2-1.7-5.2-2.4-10.4-2.7-15.6.2-2.2.3-4.3.5-6.5v.2c-.2 11.1 2.8 22 9.3 31.1.2.3.7 0 .5-.3-6.9-11.5-9.4-23.3-8.5-36.6.3-4.3.4-8.6.3-12.8.3-4 .2-8-1-11.6-.4-2.5-.9-5-1.6-7.6V63c-.7-4.5-1.4-8.8-5-11.9-.2-.2-.5.1-.3.3 4.1 3.9 4.4 10.2 5.1 15.5v.2c-.1.1-.1.1-.1.2l.3 3.3c-.1-.3-.6-.1-.5.2.1.3.2.6.3.8.1 1.4.1 2.9 0 4.3-.3 0-.5-.1-.8-.1.1-2.4.1-4.8.1-7.1 0-.6-.9-.6-.9 0 0 .9-.1 1.8-.1 2.7-.2 0-.3.2-.3.4.1 1.1.1 2.1.1 3.2 0 .3 0 .6-.1.9-.8.1-1.5.2-2.1.2-4.6.2-9.2.3-13.9.4a1109.663 1109.663 0 0 1-51.6 0c-8.7-.2-17.6-1-26.2-.5v-.1c-.2-.4-.7-.4-.9 0-.2-.1-.4-.1-.6 0-.2-.4-.9-.4-1 .1-.5 2.6-.9 6.1-.6 9.1-.1 7.4.5 14.7 0 21.9-.2 1.3-.4 2.7-.6 4 .9-9.7.9-19.6 0-29.1.4-13.9 1.3-30.4 15.9-36.8.2-.1.1-.4-.1-.3-11.6 4-15.4 16.8-16.2 27.8-.1 1.1-.2 2.3-.2 3.4v-.2c0-.2-.4-.2-.4.1.1 2.1.1 4.2.2 6.3-.2 5.1-.3 10.1-.9 15.1-1.1 9.1-3.5 17.8-5.8 26.6-.1.3.4.4.5.1 3.5-8.9 5.4-18.5 6.4-28.1-.1 8.5-.5 16.9-1.3 25.5 0 .1-.1.3-.1.4 0 .1-.1.3-.1.4v.3c-.6 2.8-1.3 5.7-1.8 8.6-.1.5.2.8.5.9-.6 2-1.2 4.1-1.8 6.1-.1.3.4.4.5.1.2-.6.4-1.1.6-1.7-.3 1-.5 2-.8 3-.1.3.3.4.4.1 1.7-4.7 3.2-9.5 4.3-14.3.8-2.7 1.5-5.4 2.1-8.3.4-1.2.7-2.3 1-3.5-.1 1.2-.2 2.5-.3 3.7-.3 1.7-.7 3.3-1 4.9-.1-.1-.3 0-.3.1-2.5 8.1-4.9 16.4-6.9 24.6-.1.4.4.5.5.1.6-2 1.2-3.9 1.8-5.9.2.4.8.5 1 .1.5-.9.9-1.9 1.3-2.9-1.2 3.7-2.4 7.4-3.7 11.1-.1.2.3.4.4.2 2.4-5.6 4.2-11.4 5.7-17.3-.4 2-.9 4-1.4 5.9-.1.4.2.6.5.7-1 3.4-1.9 6.7-2.8 10.1 0 .2 0 .3.1.5-.1.2-.2.4-.2.6-.1.3.4.5.5.2.1-.1.2-.3.2-.5.3.1.5 0 .7-.3 2.3-4.7 4-9.8 5.2-15 .8-2.1 1.5-4.3 2-6.6v.7c-.8 4.1-1.7 8.1-2.7 12.2-1.3 4.1-2.8 8.2-4.1 12.3-.1.3.4.5.5.2.5-1.1 1-2.2 1.4-3.4-.1.4-.2.9-.3 1.4-.1.6.3 1 .8 1 0 .2-.1.4-.1.6 0 .2.3.5.5.2.2-.6.5-1.2.7-1.8.9-1.8 1.8-3.7 2.5-5.6-.1.4-.2.9-.3 1.3s.2.8.6.8c-.5 2.1-1 4.3-1.4 6.5 0 .3.3.4.4.1 1-2.8 1.7-5.6 2.2-8.4.7-1.6 1.4-3.4 2-5.1-1 4.9-2.3 9.6-3.3 14.5-.1.4.4.5.5.1 1.4-4.1 2.2-8.4 3-12.7-.1 1.4-.2 2.7-.3 4-.8 4-1.7 7.9-2.1 11.9 0 .3.4.3.5.1.4-1.5.8-3 1.1-4.5.4.2.9.1 1.2-.4 0-.1 0-.1.1-.1s.1-.1.2-.1l-.3 2.1c0 .5.4.8.8.8 0 .3-.1.6-.1.8 0 .3.4.4.5.1.2-.6.4-1.2.6-1.9.4-.8.8-1.6 1.1-2.4-.3 1.6-.7 3.1-.9 4.7-.1.4.4.5.5.1.8-2.2 1.3-4.6 1.7-6.9v.7c0 .1.1.3.1.4-.5 2.1-1.1 4.1-1.6 6.2-.1.3.4.6.6.2.8-1.9 1.4-4 1.8-6.1.2-.1.5-.2.6-.5 0-.1.1-.1.1-.2v.8c0 .3.2.5.4.6-.3 1.6-.6 3.3-.6 4.9 0 .4.5.4.7.1.6-1.8.8-3.6 1.1-5.5.2-.3.3-.6.5-1-.1 1.8-.1 3.6 0 5.3 0 .6.6.9 1.1.9 0 .6-.1 1.3-.1 1.9 0 .4.6.5.7.1.3-1.4.5-2.8.7-4.3.1-.2.1-.4.2-.5.1 2.3.1 4.6.2 7 0 .2.4.3.4.1.3-1.7.4-3.4.4-5.2h.1c0 1.3.1 2.5.2 3.8 0 .4.6.4.6 0 .2-1.5.3-3 .3-4.5l.3-1.5c.1 1.8.3 3.6.6 5.3.1.4.7.3.7-.1v-1.8c.2.2.5.2.7-.1.5-1.2.9-2.5 1.3-3.8.2 0-.1 5.2.7 4.8.8-.4 1.8-5.8 2.3-6.7 6.2-5.1 15.9-7.3 23.2-7.4 9.2-.1 22.3 19.6 26.3 17.6 1.6.5-1.9-6.4-.5-6.6.5 2.3 1.4 4.5 2.6 6.5.1.1.4.1.3-.1-.5-1.3-1-2.6-1.4-3.8 0 0 0 .1.1.1.5.7 1.4.3 1.3-.6-.3-1.7-.8-3.4-1.3-5 1 2.3 2.4 4.4 4.4 5.9.6.4 1.6.1 1.3-.8-.6-1.4-1.2-2.8-1.9-4.2.6.8 1.3 1.4 2.1 2.1.3.2.6.3.9.2.3.4.6.9.9 1.3.2.3.7-.1.5-.4-.3-.5-.5-.9-.8-1.4.1-.2.1-.5 0-.9-.6-1-1.1-2-1.7-3 .5.5 1 1 1.5 1.4.3.2.6.3.9.2.9 1.1 2 2 3.2 2.7.2.1.5-.2.3-.4-.9-1-1.8-2-2.6-3 .1-.2.1-.5-.1-.8l-.6-.9c.8.8 1.7 1.5 2.6 2.1.1 0 .1.1.2.1s.1.1.2.1c.8.5 1.7 1 2.6 1.4.4.2.8-.4.4-.6-1.1-.8-2.1-1.6-3.1-2.5 1.5.9 3.1 1.5 4.9 1.5.3 0 .4-.5.1-.6-2.7-.7-4.9-1.9-6.9-3.8 1 .6 2.1 1.1 3.3 1.5 1.6 1.1 3.3 1.9 5.1 2.4.4.1.6-.4.3-.6-1.4-.8-2.8-1.6-4-2.5v-.4c.4.2.7 0 .8-.4.8.7 1.6 1.3 2.6 1.7h.2c.7.3 1.5.4 2.3.5.3 0 .4-.4.3-.6.6.2 1.3.3 1.9.3.4 0 .4-.5.1-.6-.4-.1-.8-.3-1.2-.4.3-.1.5-.4.6-.7.7.2 1.4.2 2.2.2.4 0 .4-.5.1-.6-.6-.2-1.2-.5-1.8-.7.7.1 1.4.1 2.1 0 .3-.1.3-.5 0-.6-1.2-.2-2.5-.7-3.9-1.4.1-.1.2-.2.2-.4 1.9.7 3.8 1.1 5.2 1.2.3 0 .4-.4.1-.6-1.1-.4-2.9-.9-4.6-1.6.3 0 .5-.2.6-.5.8.5 1.4-.5.9-1.2-.1-.2-.3-.3-.4-.5.3.2.6.5 1 .7.3.2.6.1.8-.1.7.6 1.4 1.1 2.1 1.6.6.4 1.1-.4.7-.9-.2-.2-.3-.4-.5-.5.8.4 1.7.7 2.6.9.3.1.5-.4.2-.5-2.1-1.3-4.1-2.6-5.9-4.2.3.1.6.1.8 0 1.1 1 2.3 2 3.5 2.9.5.4 1.1-.4.7-.9-1-1.2-2.1-2.3-3.1-3.4.1-.1.2-.3.1-.6 1.3 1.6 2.7 3 4.2 4.3.4.3 1.2-.1.8-.6-.7-1-1.4-1.9-2.2-2.9 1 .9 2.1 1.7 3.3 2.3.3.2.7-.2.4-.5-.9-.9-1.7-1.7-2.5-2.6.2 0 .4-.2.4-.4 0 0 .1 0 .1.1.1.1.1.1.2.1.7.4 1.4.7 2.2 1-.7.4-.4 0-.6-.2zm-9.9-53c0-.8-.1-1.6-.2-2.3.1.1.2.2.4.1-.1.7-.1 1.5-.2 2.2zm.3-4.6c0 .5 0 1-.1 1.6 0-.6-.1-1.2-.1-1.8l.2-.2v.4zm-.8-9.1c.3 1.9.5 3.9.6 5.9-.1-.1-.1-.2-.2-.2-.2-2.1-.3-4.1-.6-6.2.1.2.1.3.2.5zm-97.6 41v-.9c.3-1.7.6-3.5.8-5.3v.5c-.2 1.8-.5 3.8-.8 5.7zm4.3 24.7.6-4.2c.1 0 .2.1.4.1-.3 1.3-.7 2.7-1 4.1zm76.6 2.5c-.1-.2-.1-.4-.2-.6 1.1 2.1 2.5 4.2 4.1 6-1.6-1.5-2.9-3.3-3.9-5.4zm14.2 4.5c-.1-.1-.1-.2-.2-.3.4.2.7.5 1.1.7-.3-.1-.6-.2-.9-.4z" fill="#080806" stroke-width="none" opacity="1"></path><path id="SvgjsPath18004" d="M50.1 130.6c2-9 2.8-18.4 2.9-27.6 0-.4-.5-.4-.6 0-.3 3.9-.7 7.7-1.1 11.6 0-3.8-.5-7.7-1.1-11.5-.1-.5-.8-.3-.7.2.8 5.4.8 10.7 1 16.1 0 .2.1.2.2.2-.4 3.6-.9 7.3-1.3 10.9.1.3.6.4.7.1zm105.7 6.3c-3.7-7-6.6-13.8-8.2-21.3-.8-7.7-1.1-15.3-1.4-23.2 0-.7-1-.7-1.1 0-.6 5.5-.6 11.1 0 16.6-.1-.2-.4-.1-.4.1.1 4.9 1 9.9 2.5 14.7-.5-1.2-.9-2.3-1.2-3.5-.7-2.4-1.2-5-1.5-7.6 0-.1-.1-.2-.2-.2-.1-.8-.2-1.7-.3-2.6 0-.1-.1-.2-.2-.2-.3-2.8-.5-5.6-.6-8.5 0-.7-1-.7-1 0-.6 5.1-.2 10.3 1 15.3.2 2.4.7 4.7 1.4 7-1.3-3-2.1-6.2-2.3-9.9 0-.3-.5-.3-.5 0v1.9c-.1.1-.1.1-.1.2.1.3.1.7.2 1.1.1 1.7.5 3.3.9 4.9-1.9-5-3.1-10.3-3.6-16-.1-.6-.9-.6-1 0-.5 10.2 3.6 20 10 27.7v.1c-3.5-3.9-6.4-8.2-8.6-13.3-.1-.3-.6-.1-.5.2.6 1.7 1.3 3.4 2.2 5.1-3.5-5.6-6-11.7-6.8-18.7-.1-.6-1-.6-.9 0 0 .6.1 1.2.1 1.7-.2-.1-.4-.1-.5.2-.1.8-.1 1.5-.1 2.2-.2-2.1-.3-4.3-.2-6.4 0-.3-.4-.3-.4 0-.7 7.6.2 15.1 2.6 22-1.9-4.1-3.5-8.4-4.5-13-.1-.5-.8-.3-.7.2 1 7.1 3.2 14 6.9 20.1-.1.1-.1.2 0 .3.4.6.9 1.2 1.4 1.7 1.3 1.9 2.8 3.6 4.4 5.2-1.6-1.5-3.1-3.1-4.5-4.9-3.9-5.9-7.1-12-8.6-19.1-.1-1.8-.2-3.5-.3-5.3 0-.6-.9-.6-1 0-.1 1.8-.2 3.5-.2 5.3-.1-.4-.1-.7-.2-1.1 0-.3-.6-.4-.6 0 .1 1.8.2 3.5.4 5.3.1 1.3.3 2.5.5 3.7.1 2.7.5 5.3 1 7.9-1.3-4.8-2.3-9.6-2.7-14.8 0-.6-.9-.6-.9 0 .2 4.9.7 10 1.8 14.8-1.1-4.1-2-8.2-2.3-12.5 0-.2-.1-.3-.2-.3v-.4c0-.3-.5-.4-.5-.1-1.3 7-1.4 14.6 0 21.8-2.2-10.4-2.7-20.8-1.2-31.6 0-.3-.5-.4-.6-.1-3 13.2-2 27.6 3.2 40.2-4.4-8.8-4.5-18.1-5.3-27.9-.1-.6-.9-.6-.9 0-.7 10.4.2 21.7 6.8 30.2.2.2.5.2.6 0 .2.1.4-.1.3-.3-.7-2.3-1.3-4.5-1.9-6.8.7 2.4 1.5 4.8 2.5 7 .2.4.7.2.8-.1.4 1.6 1.1 3 2.6 3.7.4.1.6-.4.4-.6-1.5-1.5-2.1-4.2-2.6-6.4.8 2.5 2 4.9 3.8 6.7.2.2.6 0 .5-.3-1.1-2.9-2.5-5.6-3.4-8.7.8 2.4 1.8 4.6 3.1 6.8.2.4.9.1.7-.3l-.9-2.4c.4.8.9 1.5 1.5 2.2.2.2.6 0 .5-.3-.6-1.9-1.3-3.8-1.9-5.7.3.6.6 1.1.9 1.6.2.4.9.1.7-.3l-.3-.9c1.2 2.4 2.6 4.8 4.2 7 .3.4.9 0 .6-.4-1.7-2.9-3.1-5.9-4.4-8.9.7 1.1 1.5 2.2 2.4 3.3 1.1 1.8 2.3 3.5 3.6 5.2.4.5 1.2 0 .9-.5-2-2.8-3.7-5.7-5.1-8.7 1.7 2 3.6 3.9 5.6 5.6.3.3.7-.1.4-.4-1.3-1.5-2.6-2.9-3.8-4.3.1-.1.1-.2 0-.3-.4-.6-.9-1.2-1.3-1.8 2.1 2.8 4.7 5.2 7.6 7.1.3.2.6-.2.4-.5-3.3-3-6.2-6.1-8.6-9.6l.1-.1c2.4 3.2 5.3 6.1 8.6 8.4.4.2.8-.3.5-.6-1.2-1.1-2.4-2.2-3.5-3.4 1.3 1.3 2.7 2.4 4.2 3.5.3.2.7-.3.4-.5-2.9-2.7-5.6-5.5-8-8.4.2.2.4.1.6 0 2.1 2.6 4.5 4.9 7.2 6.6.5.6 1 1.1 1.6 1.7.4.4.9-.2.6-.6-.1-.1-.1-.1-.1-.2.2-.1.3-.4 0-.6-.6-.4-1.1-.9-1.6-1.3-.2-.2-.3-.4-.5-.6 1 .8 2 1.5 3.1 2.2.3.2.6-.2.4-.4-.6-.6-1.2-1.1-1.8-1.6.3 0 .5-.4.2-.7-9-9.2-13.5-20.5-14.4-33.1.8 6 2.8 11.9 6 17 2.6 5.6 6.8 10.5 12.4 13.2.3.1.5-.2.2-.4-2.7-1.9-5.2-4-7.3-6.4 1.1 1 2.2 1.9 3.5 2.7.2.1.4.1.5-.1 1.6 1.5 3.3 2.9 5.2 4.1.3.2.6-.2.4-.5-.2-.1-.3-.3-.5-.4-.7-1-1.4-1.9-2.1-2.9.1 0 .1-.1.1-.1.2.3.4.5.6.8.3.3.8-.1.6-.4-.4-.6-.7-1.1-1-1.7h.1c.6.8 1.1 1.6 1.7 2.4.2.3.7-.1.5-.4-.6-1-1.1-2-1.6-3 .6 1 1.2 2 1.9 3-.1.6.5.3.3-.1zm-29.2 4.5c0 1.4.2 2.8.3 4.2-.7-3.4-1.3-6.8-1.7-10.2.4 1.9.8 4 1.4 6zm5.2-11-.9-2.1c-.1-.7-.2-1.3-.3-2 .1.3.2.5.3.8-.1.1-.1.1-.1.2 1.6 4.1 3.7 8 6.3 11.5-2-2.6-3.8-5.4-5.3-8.4zm10.7 10.7c.1.1.1.1.2.1l.3.3c-.1-.1-.3-.3-.5-.4zm3 .8c-.8-.7-1.6-1.4-2.3-2.1-.6-1-1.3-1.9-1.9-2.9 1.3 1.8 2.7 3.5 4.2 5zm9.1-11.3c-2.3-4.7-4-9.2-5.1-14 .2 0 .4-.1.3-.3-.9-4.7-1.6-9.3-1.4-14.1 0-.3-.5-.3-.5 0 0 .6-.1 1.2-.1 1.8-.1 0-.2.1-.2.2-.7 9.2 1.2 18.9 6.5 26.6.2.3.6.1.5-.2zm-5.4-40.3c.5-1.9.8-3.9.8-5.9 0 1.9.1 3.7-.2 5.6 0 .3.4.4.4.1.5-2.1.8-4.5.3-6.7-.1-.3-.6-.2-.6.1 0-.9-.1-1.9-.2-2.8-.1-.4-.6-.4-.6 0-.1 3.2-.4 6.3-.6 9.5.2.4.6.4.7.1zm-96-1.7c-.1-.7-.1-1.4-.2-2.1.1.6.2 1.3.2 1.9 0 .3.6.4.6 0-.2-2.8-.2-5.7-.7-8.5 0-.1-.1-.2-.2-.2v-1.4c0-.3-.5-.4-.5-.1-.6 3.5-.4 6.9.2 10.4.1.4.7.4.6 0zm-2.1.2c-.2-4.4-.2-8.7-.2-13.1 0-.3-.5-.4-.5-.1-.8 4.3-.6 8.9.4 13.2 0 .2.3.2.3 0zM78 120.2c-.1 11 .6 21.7-3.2 32.2.2-1 .4-2.1.5-3.1 2-10 2.5-20.3 1.5-30.5 0-.1 0-.1-.1-.1v-.4c-.1-.4-.7-.5-.7 0 0 2.9 0 5.7-.1 8.6-.1-1.5-.2-3-.4-4.6-.1-.5-.8-.5-.8 0 0 7.4.3 14.8-.1 22.1-.2 1.5-.4 3-.7 4.4.8-7.7 1-15.5.5-23.3-.2-5.3-.9-10.6-2.1-15.7-.1-.6-1.1-.4-1 .1.1 1.4.2 2.9.3 4.3-.1-.3-.1-.6-.2-.9-.1-.5-.8-.5-1-.1-.2-1.6-.4-3.2-.7-4.8-.1-.6-1.1-.4-1 .1 0 1.2.1 2.4.2 3.7-.4-2.7-.9-5.3-1.6-7.9-.1-.6-1.1-.5-1 .1.1.9.2 1.9.3 2.8-.2 0-.4.2-.4.5-.1.9-.1 1.8-.2 2.7-.1-.9-.2-1.7-.3-2.6-.1-.4-.7-.3-.7.1 0 .7 0 1.4.1 2.1-.4-3.3-1-6.5-2-9.7-.1-.4-.7-.2-.7.2v.2c-.2-.2-.6-.1-.8.1 0-.9-.1-1.8-.1-2.7 0-.5-.8-.6-.8 0-.1 1.7-.2 3.4-.2 5.1-.1-.5-.2-1-.3-1.6-.1-.4-.8-.3-.8.1.1 2.5.2 5 .2 7.5-.3 0-.5.2-.5.6l-.3 3.6c-.2 0-.3.1-.3.3 0 1.7-.1 3.3-.2 4.9 0 .3-.1.6-.1.9 0-1.3-.1-2.6-.2-3.9.5-6.5.5-13-.2-19.5-.1-.7-1.1-.7-1.1 0 0 1.7-.1 3.4-.1 5.2-.2-2.5-.5-4.9-1-7.3-.1-.5-.9-.4-.9.1.3 5.1.4 10 .3 14.9-.2-.1-.5-.1-.5.2-.5 8.7-1.6 17-3.4 25.6-.1.5.6.7.8.2.1-.3.2-.6.2-.8 0 .3.3.5.6.4-.9 3.7-1.8 7.3-2.8 11.1-.1.4.5.7.7.3 1.4-3.3 2.5-6.7 3.5-10.2-.5 3.2-1 6.3-1.6 9.6 0 .1-.1.2-.1.3-.1.4.5.6.6.3 1.3-3.1 2.5-6.5 3.3-9.9-.4 2.4-.9 4.9-1.5 7.4-.1.5.6.7.8.2.3-1 .6-1.9.9-2.9-.1.5-.2 1.1-.4 1.6-.1.4.5.6.6.2.8-2.1 1.4-4.2 1.9-6.4 0 .3-.1.6-.1.9 0 .4.5.6.8.3-.4 1.9-.9 3.9-1.4 5.9-.1.3.4.4.5.1 2.5-6.2 3.5-13.1 3.5-19.8 0-.2-.3-.2-.3 0-.4 4.2-1.1 8.3-2 12.4 1.3-7.1 2.1-14.5 1.9-21.8 0-.8.1-1.6.1-2.3.6 7.9.7 15.7-.1 23.6-.5 3.3-1.2 6.5-1.8 9.8-.1.3.3.4.4.1 1.5-4 2.3-8.3 2.6-12.6.4-3.2.7-6.4.7-9.6.2 2.2.3 4.4.4 6.6-.8 5.5-1.8 11-3.1 16.5-.1.3.4.4.5.1 1-3 1.8-6.1 2.3-9.2-.5 5.7-1.4 11.2-2.8 16.9-.1.3.4.5.5.1 1.6-4.4 2.7-9.2 3.1-14-.3 4.3-1 8.6-1.7 13.1-.1.4.4.5.6.2.1-.2.1-.4.2-.5.1.1.2.1.3-.1.5-1.2.9-2.5 1.3-3.7.2.2.6.2.7-.2.4-2.4.8-4.9 1-7.4.2-1.8.4-3.7.5-5.6 0-.1 0-.1-.1-.1.1-1.9.1-3.8.2-5.6 0-.2-.1-.3-.2-.3 0-1.4-.1-2.9-.1-4.3.2 2.3.5 4.6.7 6.9-.3 5.2-.6 10.3-.9 15.5-.2 1-.4 2.1-.6 3.1-.1.3.3.4.4.1.1-.5.3-.9.4-1.4.1 0 .2-.1.2-.2.1-.4.2-.9.3-1.4.1 0 .1.1.2.1-.3 2.4-.5 4.7-.6 7.1 0 .4.6.5.7.1.6-2.9 1.1-5.9 1.5-8.9-.1 1.6-.2 3.1-.4 4.7 0 .3.4.3.5.1.8-3.9 1.2-7.8 1.3-11.8 0 2.9.1 5.9.1 8.8-.1 1.9-.1 3.9-.1 5.8 0 .2 0 .5-.1.7 0 .1 0 .1.1.2v.4c0 .6.8.5.8 0 .2 0 .3-.1.3-.3 1-6 1.2-12.6.8-19 .1-.7.1-1.4.1-2.1.1 2.9.2 5.9.2 8.9 0 .1.1.2.1.3-.2 3.7-.4 7.4-.7 11.1 0 .5.7.6.8.1.3-1.8.5-3.6.7-5.4 0 .1.1.3.2.3-.2 1.5-.4 3-.7 4.5-.1.7.9 1 1.1.3l.3-1.5c.1.2.5.4.6.1 4.5-10.2 4.6-21.7 3.4-32.7 0-.5-.7-.5-.7 0zm-21.9-6.4v-.7c0-.2.1-.5.1-.7-.1.4-.1.9-.1 1.4zm5.6-7c0-.1-.1-.1-.1-.2v-2.9c.1 1.3.2 2.6.3 3.8-.1-.2-.2-.5-.2-.7zm3.5 22.2c-.1-.4-.1-.9-.2-1.3.1-.7.1-1.3.2-2v3.3zm-1-2.7s-.1 0 0 0c-.1-2.2-.1-4.4-.1-6.7.1 2.2.1 4.4.1 6.7zm-.1.7v-.1.1zm.3 9.7c0-1.3 0-2.6-.1-3.9 0-.2 0-.3.1-.5.1 1.5.1 3 0 4.4zm6-4.5v-.4c0-.1 0-.1-.1-.2v-1c0-1.5 0-3.1.1-4.6v6.2z" fill="#000000" stroke-width="none" opacity="1"></path></g></g><g id="svga-group-humanbody-back"><path id="SvgjsPath17636" d="M166.5 181.1c-10.9-6.6-27.6-8.4-35-12.1-4.9-2.5-9.1-4.7-8.9-17.8s1.9-42.4 1.9-42.4H75.4s1.6 29.4 1.9 42.4-4.2 15.6-8.9 17.8c-7.4 3.5-24.1 5.4-35 12.1-10.8 6.6-10 18.9-10 18.9v19.7h153.3V200c-.1 0 .7-12.3-10.2-18.9z" fill="#73512d" stroke-width="none" opacity="1" stroke="none"></path></g><g id="svga-group-chinshadow-single"><path id="SvgjsPath17878" d="M77.2 155.9c7 5.3 16 11.1 22.8 11.1 6.8 0 15.8-5.8 22.8-11-.1-1.4-.2-3-.2-4.8.2-13.1 1.9-42.4 1.9-42.4H75.4s1.6 29.4 1.9 42.4c0 1.8 0 3.3-.1 4.7z" fill="#543310" stroke-width="none" opacity="0.65"></path></g><g id="svga-group-humanbody-front"><path id="SvgjsPath17637" d="M78.7 156.8c.5 4.8 1.7 9.4 3.1 13.9.8 2.3 1.6 4.6 2.6 6.9.8 2 1.7 4.2 3.1 5.9.3.4 1 0 .9-.5-.5-2.2-1.6-4.3-2.4-6.4-.9-2.2-1.7-4.4-2.5-6.6-1.5-4.4-2.8-8.9-4.1-13.3-.2-.4-.8-.3-.7.1zm41.3-1c-1.3 8.2-3.9 16.1-5.4 24.2-.1.4.4.5.6.2 3.1-7.7 4.1-16.1 5.1-24.3-.1-.2-.3-.2-.3-.1zm-25.8 11.9c-.9 3.6 1.9 8.6 6.2 7.6.5-.1.4-.8 0-1-1.4-.5-2.9-.9-3.9-2.1-1.1-1.2-1.5-2.9-1.4-4.5 0-.4-.8-.5-.9 0z" fill="#543310" stroke-width="none" opacity="1" stroke="none"></path><path id="SvgjsPath17638" d="M177.3 219.7c-.1-6.6-.3-13.1-.3-19.7l-.3-.3c.1 0 .1 0 .2.1s.1.2.1.1v-1.4c0-.5-.1-.9-.1-1.4-.1-.9-.3-1.9-.5-2.8-.5-1.8-1.1-3.6-2-5.3-1.7-3.4-4.4-6.2-7.7-8.1-3.6-2.2-7.6-3.8-11.6-5.1-4-1.3-8.1-2.4-12.1-3.5-4-1.2-8.1-2.2-11.8-4.2-1.9-1-3.6-2.1-4.8-3.6-1.2-1.6-1.9-3.5-2.3-5.5-.8-4-.4-8.2-.3-12.4l.7-12.6 1.5-25.2.1-1.4h-1.4c-8.2 0-16.4 0-24.6.1l-24.6.3h-.9l.1.9c.8 11.9 1.6 23.8 2.1 35.7.1 3 .3 6 .2 8.9-.1 2.9-.4 5.9-1.6 8.6-.6 1.3-1.4 2.5-2.4 3.5s-2.3 1.8-3.6 2.4c-2.6 1.3-5.4 2.2-8.3 3-5.8 1.5-11.6 2.8-17.3 4.7-2.8.9-5.7 2-8.4 3.4-1.3.7-2.7 1.4-4 2.4-1.3.9-2.4 1.9-3.5 3.1-2.1 2.3-3.6 5.2-4.5 8.1-.5 1.5-.8 3-1 4.6-.1.8-.1 1.6-.1 2.4v2.3l-.2 17.9v1.3h1.4l38.3.2c12.8.1 25.5.1 38.3 0 12.8-.1 25.6-.1 38.3-.3 12.8-.2 25.6-.5 38.3-.7h.6v-.5zm-77.2-1.6H61.8l-37 .2-.1-16.6v-2.2c0-.7 0-1.4.1-2.1.1-1.4.4-2.8.8-4.2.8-2.7 2.1-5.3 3.9-7.5.9-1.1 2-2.1 3.1-2.9 1.1-.9 2.4-1.6 3.7-2.3 2.6-1.4 5.3-2.5 8.1-3.5 5.6-2 11.4-3.4 17.1-5.1 2.9-.8 5.8-1.7 8.5-3.1 1.3-.7 2.7-1.5 3.8-2.6 1.1-1.1 2-2.4 2.6-3.9 1.2-2.9 1.5-5.9 1.6-8.9 0-3-.1-6-.2-9l-1.3-34.8 23.5.4c7.7.1 15.4.1 23.1.1-.4 7.9-.8 15.9-1.1 23.8-.2 4.2-.2 8.4-.3 12.6 0 4.2-.2 8.5.8 12.8.5 2.1 1.3 4.2 2.8 6 1.4 1.7 3.4 2.9 5.3 3.8 3.9 1.9 8 2.8 12.1 3.8s8.2 2 12.2 3.3c4 1.3 7.9 2.8 11.5 5 3.2 1.9 5.8 4.7 7.5 8 .9 1.6 1.5 3.4 1.9 5.2.2.9.4 1.8.4 2.7.1.5.1.9.1 1.4V200l-.3 19c-12.6-.2-25.1-.5-37.7-.7-12.7-.1-25.5-.1-38.2-.2z" fill="#452706" stroke-width="none" opacity="1" stroke="none"></path></g><g id="svga-group-clothes-single"><path id="SvgjsPath17778" d="M149.9 220.3c-.4-19.5 5.9-44.6 5.9-44.6l-12.6-3.6s-8.7 28.3-45.2 27.1-41.2-27.1-41.2-27.1l-12.6 3.6s6.3 25.2 5.9 44.6h99.8z" fill="#1d282e" stroke-width="none" opacity="1" stroke="none"></path><path id="SvgjsPath17779" d="m156 174.9-12.6-3.6c-.4-.1-.9.1-1.1.5-.7 2-1.7 4.1-2.9 6-1.1 1.9-2.4 3.8-3.9 5.5-1.4 1.7-3 3.3-4.7 4.8-1.7 1.4-3.5 2.8-5.4 3.9-3.8 2.4-8 4.1-12.4 5.2-4.4 1.1-8.9 1.6-13.4 1.6s-9.1-.4-13.5-1.4c-1.1-.2-2.2-.5-3.3-.8-1.1-.4-2.2-.7-3.2-1.1-2.1-.8-4.2-1.7-6.2-2.9-3.9-2.2-7.5-5.2-10.2-8.7-1.4-1.8-2.6-3.7-3.6-5.7s-1.8-4.1-2.2-6.3c-.1-.3-.4-.5-.8-.4L44 174.9c-.4.1-.6.5-.5.9.8 3.6 1.6 7.3 2.3 11 .7 3.7 1.3 7.4 1.8 11.1.5 3.7.9 7.4 1.2 11.2.3 3.7.4 7.5.3 11.2 0 .6.5 1.1 1.1 1.1l25.2-.1c8.4 0 16.8-.1 25.1-.2l12.5-.1 12.4-.2 24.7-.4c.1-3.8.3-7.6.7-11.3.4-3.7.9-7.4 1.4-11.2.6-3.7 1.3-7.4 2-11.1.8-3.7 1.5-7.4 2.4-11 0-.4-.2-.8-.6-.9zm-3.3 11.6c-.7 3.7-1.2 7.4-1.7 11.2s-.9 7.5-1.1 11.3c-.2 3.8-.3 7.5-.1 11.2l-25.2-.4-12.5-.2-12.4-.1c-8.3-.1-16.6-.2-24.8-.2l-23.7-.1c0-3.4-.2-6.9-.4-10.3-.3-3.8-.8-7.5-1.3-11.3-1.1-7.2-2.5-14.4-4.2-21.5l11.2-3.3c2.5 8.9 8.9 16.1 16.8 20.4 8.1 4.5 17.4 6.2 26.5 6.3 4.6.1 9.2-.3 13.7-1.3s8.9-2.6 12.9-5c4-2.3 7.6-5.4 10.6-8.9 2.8-3.4 5.2-7.1 6.8-11.3l11.1 3.1c-.8 3.5-1.6 7-2.2 10.4z" fill="#070c0f" stroke-width="none" opacity="1" stroke="none"></path></g><g id="svga-group-head" transform="matrix(1,0,0,1,0,0)"><g id="svga-group-ears-left-move" transform="matrix(1,0,0,1,0,0)"><g id="svga-group-ears-left" transform="matrix(1,0,0,1,0,0)"><path id="SvgjsPath17788" d="M62 92.9c-.2-.3-3.3-4.3-5.9-6.7-2.6-2.4-3.4-2.4-4.6-.9-1.3 1.5-2.9 9.1-2.5 12.4.4 3.4 3.6 8.7 5.2 11.7 1.7 3 3.3 6.7 5.1 6.3 1.9-.4 4.4-4.6 5.7-7.7 1.3-3.1.5-10.8-3-15.1z" fill="#73512d" stroke-width="none" opacity="1" stroke="none"></path><path id="SvgjsPath17789" d="M65.8 102c.1.9.2 1.7.2 2.6s0 1.7-.2 2.6c-.1.4-.2.9-.3 1.3-.1.4-.3.7-.4 1.1-.3.7-.6 1.4-1 2.1-.7 1.3-1.5 2.6-2.6 3.6-.5.5-1.1 1-1.8 1.3-.4.1-.9.1-1.3 0-.4-.2-.8-.5-1.1-.8-1.2-1.3-1.9-2.8-2.7-4.3-.7-1.5-1.5-2.9-2.2-4.3-.7-1.5-1.5-2.9-2.1-4.4-.3-.8-.7-1.5-.9-2.3-.3-.8-.5-1.6-.6-2.5-.2-1.7 0-3.4.1-5 .2-1.6.5-3.2.8-4.8.2-.8.4-1.6.8-2.3l.3-.6c.1-.2.3-.4.4-.5.2-.3.5-.6.9-.8.3-.2.8-.3 1.2-.3.4.1.8.3 1.1.5.7.4 1.2 1 1.8 1.5 2.2 2.2 4 4.8 5.9 7.2 1.9 2.4 3.2 5.7 3.7 9.1zM55.7 86.4c-1.1-.9-2.4-1.9-3.1-1.2-.2.1-.4.4-.6.6l-.3.3c-.1.1-.1.3-.2.4-.3.6-.5 1.3-.8 2-.5 1.4-.9 2.9-1.1 4.5-.3 1.5-.5 3.1-.4 4.7.1.8.3 1.6.6 2.3.3.8.6 1.5.9 2.2.7 1.5 1.5 2.8 2.3 4.2.8 1.4 1.7 2.7 2.5 4.1.4.7.8 1.4 1.2 2s.8 1.3 1.3 1.7c.5.4.9.6 1.3.4.5-.2.9-.6 1.4-1.1.9-1 1.6-2.1 2.3-3.4.4-.6.7-1.3 1-1.9.2-.3.3-.7.4-1l.2-.5c0-.2.1-.3.1-.5.3-1.4.4-3 .3-4.6s-.4-3.2-.9-4.8c-.5-1.6-1.2-3-2.2-4.2-1.9-2.1-4-4.3-6.2-6.2z" fill="#64411d" stroke-width="none" opacity="1" stroke="none"></path><path id="SvgjsPath17790" d="M51.2 99.4c-.3-2.3-.5-7.8.8-9.6 2.2-2.9 6 6.4 6.9 9.3 0 .1.1.2.1.3.2.3-.1.7-.4.6-.4-.2-.9-.6-1.3-.8-1.1-.5-1.6.5-1.3 1.8.4 1.8 1.4 2.9 2.2 4.3.1.2 0 .4-.2.3-1.6-.9-3.5-4.5-3.1-6.6.3-2 1.9-1.8 3.1-.8-.7-1.7-1.5-3.3-2.5-4.8-.6-.9-1.2-2-2.2-2.2-1.2-.2-1 .3-1.2 1.8-.8 4.8-.3 10.4 2.5 14.5.1.1 0 .2-.1.1-1.8-2.3-3-4.9-3.3-8.2z" fill="#543310" stroke-width="none" opacity="1" stroke="none"></path></g></g><g id="svga-group-ears-right-move" transform="matrix(1,0,0,1,0,0)"><g id="svga-group-ears-right" transform="matrix(1,0,0,1,0,0)"><path id="SvgjsPath17791" d="M138 92.9c.2-.3 3.3-4.3 5.9-6.7 2.6-2.4 3.4-2.4 4.6-.9 1.3 1.5 2.9 9.1 2.5 12.4s-3.6 8.7-5.2 11.7c-1.7 3-3.3 6.7-5.1 6.3-1.9-.4-4.4-4.6-5.7-7.7s-.5-10.8 3-15.1z" fill="#73512d" stroke-width="none" opacity="1" stroke="none"></path><path id="SvgjsPath17792" d="M138 92.9c1.9-2.4 3.8-5 5.9-7.2.5-.5 1.1-1.1 1.8-1.5.3-.2.7-.4 1.1-.5.4-.1.9.1 1.2.3.3.2.6.5.9.8.1.1.2.3.4.5l.3.6c.3.7.6 1.5.8 2.3.4 1.6.7 3.2.8 4.8.2 1.6.3 3.3.1 5-.1.9-.4 1.7-.6 2.5-.3.8-.6 1.6-.9 2.3-.7 1.5-1.4 3-2.1 4.4-.8 1.5-1.5 2.9-2.2 4.3-.8 1.4-1.4 3-2.7 4.3-.3.3-.7.6-1.1.8-.4.2-.9.2-1.3 0-.8-.3-1.3-.8-1.8-1.3-1-1.1-1.8-2.3-2.6-3.6-.4-.7-.7-1.4-1-2.1-.2-.4-.3-.7-.4-1.1-.1-.4-.3-.8-.3-1.3-.1-.9-.2-1.7-.2-2.6s.1-1.7.2-2.6c.4-3.4 1.7-6.7 3.7-9.1zm.1.1c-1 1.2-1.7 2.7-2.2 4.2-.5 1.6-.8 3.2-.9 4.8-.1 1.6 0 3.2.3 4.6 0 .2.1.3.1.5l.2.5c.1.3.3.7.4 1 .3.7.6 1.3 1 1.9.7 1.2 1.5 2.4 2.3 3.4.4.5.9.9 1.4 1.1.4.2.8 0 1.3-.4s.9-1 1.3-1.7c.4-.6.8-1.3 1.2-2 .8-1.4 1.7-2.8 2.5-4.1.8-1.4 1.6-2.8 2.3-4.2.4-.7.7-1.5.9-2.2.3-.8.5-1.6.6-2.3.1-1.6-.1-3.2-.4-4.7-.3-1.5-.7-3-1.1-4.5-.2-.7-.5-1.4-.8-2-.1-.1-.1-.3-.2-.4-.1-.1-.1-.2-.3-.3-.2-.2-.4-.5-.6-.6-.7-.6-2 .4-3.1 1.2-2.2 1.5-4.3 3.7-6.2 6.2z" fill="#64411d" stroke-width="none" opacity="1" stroke="none"></path><path id="SvgjsPath17793" d="M148.8 99.4c.3-2.3.5-7.8-.8-9.6-2.2-2.9-6 6.4-6.9 9.3 0 .1-.1.2-.1.3-.2.3.1.7.4.6.4-.2.9-.6 1.3-.8 1.1-.5 1.6.5 1.3 1.8-.4 1.8-1.4 2.9-2.2 4.3-.1.2 0 .4.2.3 1.6-.9 3.5-4.5 3.1-6.6-.3-2-1.9-1.8-3.1-.8.7-1.7 1.5-3.3 2.5-4.8.6-.9 1.2-2 2.2-2.2 1.2-.2 1 .3 1.2 1.8.8 4.8.3 10.4-2.5 14.5-.1.1 0 .2.1.1 1.8-2.3 3-4.9 3.3-8.2z" fill="#543310" stroke-width="none" opacity="1" stroke="none"></path></g></g><g id="svga-group-faceshape-wrap" transform="matrix(1,0,0,1,0,0)"><g id="svga-group-faceshape-single"><path id="SvgjsPath17868" d="M100 35.3c-22.5 0-41.9 16.4-43.2 46.4v.3c0 2.6-.1 24.7 2.4 38.5 1.6 8.4 4.2 11.1 11.1 16.8 6.8 5.6 20.3 16.6 29.7 16.6s22.8-11 29.7-16.6c6.8-5.6 9.5-8.4 11.1-16.8 2.6-13.8 2.4-35.9 2.4-38.5v-.3c-1.3-29.9-20.7-46.4-43.2-46.4z" fill="#73512d" stroke-width="none" opacity="1"></path><path id="SvgjsPath17869" d="M143.2 82v-.3c-1.3-29.9-20.7-46.4-43.2-46.4S58.1 51.7 56.8 81.7v.3c0 2.6-.1 24.7 2.4 38.5 1.6 8.4 4.2 11.1 11.1 16.8 6.8 5.6 20.3 16.6 29.7 16.6s22.8-11 29.7-16.6c6.8-5.6 9.5-8.4 11.1-16.8 2.6-13.8 2.4-35.9 2.4-38.5zm-3.3 10.9c-.2 6.7-.6 14.5-1.3 21.1-.2 1.7-.4 3.3-.7 4.9-.2 1.6-.6 3.2-1 4.6-.4 1.5-1 2.8-1.7 4s-1.7 2.4-2.8 3.5c-2.2 2.2-4.9 4.4-7.5 6.6-2.6 2.2-5.2 4.2-7.9 6.2s-5.4 3.8-8.3 5.4c-2.9 1.5-5.9 2.8-8.9 3-3 0-6.2-.9-9.2-2.3-3-1.4-5.9-3.1-8.8-4.9-2.8-1.9-5.5-3.9-8.2-6-2.6-2.1-5.3-4.3-7.7-6.6-1.2-1.2-2.2-2.5-3-3.8-.8-1.4-1.4-2.9-1.8-4.4-.4-1.6-.7-3.2-.9-4.9-.2-1.7-.4-3.3-.5-5-.5-6.7-.5-14.5-.5-21.3V82.8c.1-3.2.4-6.5 1-9.7 1.1-6.4 3.1-12.7 6.4-18.4 3.3-5.6 8-10.6 13.8-14 5.8-3.3 12.6-5.1 19.4-5.1 6.8.1 13.5 1.8 19.3 5.2 5.8 3.4 10.4 8.4 13.7 14 3.3 5.7 5.2 12 6.2 18.4.5 3.2.8 6.4.8 9.6.3 3.4.2 6.7.1 10.1z" fill="#452706" stroke-width="none" opacity="1"></path></g></g><g id="svga-group-mouth-single-move" transform="matrix(1,0,0,1,0,0)"><g id="svga-group-mouth-single" transform="matrix(1,0,0,1,0,0)"><path id="SvgjsPath17969" d="M88.14 127.85s.96-2.13 3.29-3.87c2.09-1.55 3.96-2.36 7.38-2.71s6.52.56 7.91 1.24c2.98 1.47 5.3 4.94 5.3 4.94s-2.71 1.82-5.51 1.52c-2.8-.31-5.38-1.42-7.03-1.02-1.65.4-5.96 1.47-7.56 1.47-1.6-.02-3.78-1.57-3.78-1.57z" fill="#883b2f" stroke-width="none" opacity="1" transform="translate(0 2)"></path><path id="SvgjsPath17970" d="M88.58 128.25s.37 2.14 3.17 3.89 5.76 1.94 8.26 2c2.49.07 6.36-.9 8.2-2.11 2.83-1.89 3.28-4.14 3.28-4.03 0 .1-2.13.79-4.23.75-2.09-.04-5.96-1.28-7.56-.96s-5.91 1.57-7.38 1.43c-1.47-.14-3.74-.97-3.74-.97z" fill="#904539" stroke-width="none" opacity="1" transform="translate(0 2)"></path><path id="SvgjsPath17971" d="M87.16 127.11c1.17 1.63 3.03 2.68 5.02 2.97 2.73.38 5.01-1.35 7.67-1.41 2.84-.07 5.33 1.4 8.26.96 2.09-.31 4.11-1.17 5.6-2.68.3-.3-.08-.8-.45-.59-2.01 1.2-4.06 2.1-6.46 2.02-2.27-.07-4.31-1.31-6.6-1.33-2.08-.02-3.81 1.14-5.78 1.61-2.66.63-4.97-.13-7.12-1.71-.08-.06-.21.07-.14.16z" fill="#813326" stroke-width="none" opacity="1" transform="translate(0 2)"></path></g></g><g id="svga-group-eyes-left-move" transform="matrix(1,0,0,1,0,0)"><g id="svga-group-eyes-left" transform="matrix(1,0,0,1,0,0)"><g id="svga-group-eyesback-left"><path id="SvgjsPath17820" d="M89.7 96.1s-1.3-3.1-3.3-4.7c-1.9-1.6-5.1-3.9-9.7-1.9s-6.5 5.7-6.5 5.7.7 2.7 2 3.9c1.3 1.2 4 2.7 8.4 2.1 4.5-.6 6.6-2 7.3-2.7.8-.6 1.8-2.4 1.8-2.4z" fill="#ffffff" stroke-width="none" opacity="1"></path></g><g id="svga-group-eyesiriswrapper-left" transform="matrix(1,0,0,1,0,0)"><g id="svga-group-eyesiriscontrol-left" transform="matrix(1,0,0,1,0,0)"><g id="svga-group-eyesiris-left" transform="matrix(1,0,0,1,0,0)"><path id="SvgjsPath17882" d="M77.2 88.9c2.5-1.6 5.9-.9 7.6 1.6 1.6 2.5.9 5.9-1.6 7.6-2.5 1.6-5.9.9-7.6-1.6s-.9-5.9 1.6-7.6z" fill="#bd1c1b" stroke-width="none" opacity="1"></path><path id="SvgjsPath17883" d="M84.8 90.5c.4.6.7 1.3.8 2 .2.7.2 1.5.1 2.2s-.4 1.5-.8 2.1c-.4.6-1 1.2-1.6 1.6-.7.4-1.4.6-2.1.7-.7.1-1.5.1-2.2-.1-1.4-.3-2.7-1.2-3.6-2.4-.4-.6-.8-1.3-.9-2s-.2-1.5 0-2.3c.2-.8.4-1.5.9-2.1.4-.6 1-1.2 1.6-1.6.7-.4 1.4-.7 2.1-.8.8-.1 1.5-.1 2.2.1 1.5.5 2.8 1.4 3.5 2.6zm0 .1-.3-.4c-.1-.1-.2-.3-.4-.4-.1-.1-.3-.2-.4-.3-.1-.1-.3-.2-.4-.3-.6-.4-1.3-.6-1.9-.7-1.4-.2-2.7.1-3.8.8-1.1.7-1.9 1.9-2.2 3.2-.3 1.3-.1 2.7.6 3.9.3.6.8 1.1 1.4 1.5.6.4 1.2.7 1.9.8.7.1 1.4.1 2.1-.1s1.3-.5 1.8-.8c.6-.4 1-.9 1.4-1.4.4-.6.7-1.2.9-1.8.2-.7.3-1.4.2-2.1-.3-.6-.5-1.3-.9-1.9z" fill="#9e0100" stroke-width="none" opacity="1"></path><path id="SvgjsPath17884" d="M80.2 91.6c1.1 0 1.9.9 1.9 1.9s-.9 1.9-1.9 1.9-1.9-.9-1.9-1.9.8-1.9 1.9-1.9z" fill="#000000" stroke-width="none" opacity="1"></path><path id="SvgjsPath17885" d="M80.2 95.7c-1.2 0-2.1-.9-2.1-2.1 0-1.2.9-2.1 2.1-2.1s2.1.9 2.1 2.1c0 1.1-.9 2.1-2.1 2.1zm0-3.9c-1 0-1.8.8-1.8 1.8s.8 1.8 1.8 1.8 1.8-.8 1.8-1.8-.8-1.8-1.8-1.8z" fill="#8f0100" stroke-width="none" opacity="1"></path><path id="SvgjsPath17886" d="M77.7 89.5c.4-.3 1.2.3 1.7 1.1.5.9.6 1.8.1 2-.4.3-1.2-.3-1.7-1.1-.5-.9-.5-1.8-.1-2zm3.7 5c.4 0 .7.3.7.7s-.3.7-.7.7-.7-.3-.7-.7.4-.7.7-.7z" fill="#ffffff" stroke-width="none" opacity="1"></path></g></g></g><g id="svga-group-eyesfront-left"><path id="SvgjsPath17828" d="M69.4 94.6c0 6.4 4.7 11.5 10.6 11.5s10.6-5.2 10.6-11.5S85.9 83.1 80 83.1s-10.6 5.1-10.6 11.5zm2.9 4.5c-1.3-1.2-2-3.9-2-3.9s1.9-3.8 6.5-5.7 7.8.3 9.7 1.9c1.9 1.6 3.3 4.7 3.3 4.7s-1 1.8-1.7 2.4c-.7.6-2.9 2.1-7.3 2.7-4.6.6-7.2-.9-8.5-2.1z" fill="#73512d" stroke-width="none" opacity="1" stroke="none"></path><path id="SvgjsPath17829" d="M90.5 97.3c-1.1-5.1-4.1-10.3-9.7-11.1-6.2-.9-8.8 4.5-10.9 9.2-.1.2-.4.1-.4-.2.9-5.4 5.5-10.5 11.3-9.7 5.8.9 8.9 6.4 9.9 11.6 0 .3-.2.4-.2.2z" fill="#64411d" stroke-width="none" opacity="1" stroke="none"></path><path id="SvgjsPath17830" d="M90.3 98.3c-2-4.7-5.1-9.3-10.9-8.7-5.5.6-8 5.2-11 9.1-.2.3-.8 0-.7-.4 1.8-4.8 6.6-9.9 12.1-10 5.4-.1 10.1 4.7 10.9 9.9 0 .1-.3.3-.4.1z" fill="#0f190c" stroke-width="none" opacity="1" stroke="none"></path><path id="SvgjsPath17831" d="M89.5 96.7c-1.3 4.1-7.9 5.2-11.6 5-3.6-.2-8-2.7-7.9-6.8 0-.3.5-.4.5-.1.9 4.1 4.1 6.2 8.3 6.1 3.6-.1 8.4-1 10.3-4.4.2-.1.5 0 .4.2z" fill="#0f190c" stroke-width="none" opacity="1" stroke="none"></path></g></g></g><g id="svga-group-eyes-right-move" transform="matrix(1,0,0,1,0,0)"><g id="svga-group-eyes-right" transform="matrix(1,0,0,1,0,0)"><g id="svga-group-eyesback-right"><path id="SvgjsPath17821" d="M110.3 96.1s1.3-3.1 3.3-4.7c1.9-1.6 5.1-3.9 9.7-1.9s6.5 5.7 6.5 5.7-.7 2.7-2 3.9c-1.3 1.2-4 2.7-8.4 2.1-4.5-.6-6.6-2-7.3-2.7-.8-.6-1.8-2.4-1.8-2.4z" fill="#ffffff" stroke-width="none" opacity="1"></path></g><g id="svga-group-eyesiriswrapper-right" transform="matrix(1,0,0,1,0,0)"><g id="svga-group-eyesiriscontrol-right" transform="matrix(1,0,0,1,0,0)"><g id="svga-group-eyesiris-right" transform="matrix(1,0,0,1,0,0)"><path id="SvgjsPath17887" d="M117 89c2.5-1.6 5.9-.9 7.6 1.6 1.6 2.5.9 5.9-1.6 7.6-2.5 1.6-5.9.9-7.6-1.6-1.7-2.6-1-6 1.6-7.6z" fill="#bd1c1b" stroke-width="none" opacity="1"></path><path id="SvgjsPath17888" d="M124.6 90.5c.4.6.7 1.3.8 2 .2.7.2 1.5.1 2.2s-.4 1.5-.8 2.1c-.4.6-1 1.2-1.6 1.6-.7.4-1.4.6-2.1.7-.7.1-1.5.1-2.2-.1-1.4-.3-2.7-1.2-3.6-2.4-.4-.6-.8-1.3-.9-2s-.2-1.5 0-2.3c.2-.8.4-1.5.9-2.1.4-.6 1-1.2 1.6-1.6.7-.4 1.4-.7 2.1-.8.8-.1 1.5-.1 2.2.1 1.5.5 2.7 1.4 3.5 2.6zm-.1.1-.3-.4c-.1-.1-.2-.3-.4-.4-.1-.1-.3-.2-.4-.3-.1-.1-.3-.2-.4-.3-.6-.4-1.3-.6-1.9-.7-1.4-.2-2.7.1-3.8.8-1.1.7-1.9 1.9-2.2 3.2-.3 1.3-.1 2.7.6 3.9.3.6.8 1.1 1.4 1.5.6.4 1.2.7 1.9.8.7.1 1.4.1 2.1-.1s1.3-.5 1.8-.8c.6-.4 1-.9 1.4-1.4.4-.6.7-1.2.9-1.8.2-.7.3-1.4.2-2.1-.3-.6-.5-1.3-.9-1.9z" fill="#9e0100" stroke-width="none" opacity="1"></path><path id="SvgjsPath17889" d="M119.9 91.6c1.1 0 1.9.9 1.9 1.9s-.9 1.9-1.9 1.9-1.9-.9-1.9-1.9.9-1.9 1.9-1.9z" fill="#000000" stroke-width="none" opacity="1"></path><path id="SvgjsPath17890" d="M119.9 95.7c-1.2 0-2.1-.9-2.1-2.1 0-1.2.9-2.1 2.1-2.1s2.1.9 2.1 2.1c.1 1.1-.9 2.1-2.1 2.1zm0-3.9c-1 0-1.8.8-1.8 1.8s.8 1.8 1.8 1.8 1.8-.8 1.8-1.8-.8-1.8-1.8-1.8z" fill="#8f0100" stroke-width="none" opacity="1"></path><path id="SvgjsPath17891" d="M117.4 89.5c.4-.3 1.2.3 1.7 1.1.5.9.6 1.8.1 2s-1.2-.3-1.7-1.1c-.5-.9-.5-1.8-.1-2zm3.8 5c.4 0 .7.3.7.7s-.3.7-.7.7-.7-.3-.7-.7.3-.7.7-.7z" fill="#ffffff" stroke-width="none" opacity="1"></path></g></g></g><g id="svga-group-eyesfront-right"><path id="SvgjsPath17832" d="M120 83.1c-5.9 0-10.6 5.2-10.6 11.5s4.7 11.5 10.6 11.5 10.6-5.2 10.6-11.5-4.8-11.5-10.6-11.5zm-.7 18.1c-4.5-.6-6.6-2-7.3-2.7-.7-.6-1.7-2.4-1.7-2.4s1.3-3.1 3.3-4.7c1.9-1.6 5.1-3.9 9.7-1.9s6.5 5.7 6.5 5.7-.7 2.7-2 3.9-4 2.7-8.5 2.1z" fill="#73512d" stroke-width="none" opacity="1" stroke="none"></path><path id="SvgjsPath17835" d="M109.5 97.3c1.1-5.1 4.1-10.3 9.7-11.1 6.2-.9 8.8 4.5 10.9 9.2.1.2.4.1.4-.2-.9-5.4-5.5-10.5-11.3-9.7-5.8.9-8.9 6.4-9.9 11.6 0 .3.2.4.2.2z" fill="#64411d" stroke-width="none" opacity="1" stroke="none"></path><path id="SvgjsPath17836" d="M109.7 98.3c2-4.7 5.1-9.3 10.9-8.7 5.5.6 8 5.2 11 9.1.2.3.8 0 .7-.4-1.8-4.8-6.6-9.9-12.1-10-5.4-.1-10.1 4.7-10.9 9.9 0 .1.3.3.4.1z" fill="#0f190c" stroke-width="none" opacity="1" stroke="none"></path><path id="SvgjsPath17837" d="M110.5 96.7c1.3 4.1 7.9 5.2 11.6 5 3.6-.2 8-2.7 7.9-6.8 0-.3-.5-.4-.5-.1-.9 4.1-4.1 6.2-8.3 6.1-3.6-.1-8.4-1-10.3-4.4-.2-.1-.5 0-.4.2z" fill="#0f190c" stroke-width="none" opacity="1" stroke="none"></path></g></g></g><g id="svga-group-facehighlight-single"></g><g id="svga-group-eyebrows-left-move" transform="matrix(1,0,0,1,0,0)"><g id="svga-group-eyebrows-left-rotate" transform="matrix(1,0,0,1,0,0)"><g id="svga-group-eyebrows-left" transform="matrix(1,0,0,1,0,0)"><path id="SvgjsPath17754" d="M65.5 85.3c.1-.5.4-.9.6-1.4.2-.5.5-1.1.8-1.5-.1-.2-.1-.5.1-.7.4-.6.8-1.1 1.2-1.8.3-.6.5-1.3.9-1.8.5-.7 1.8-.6 2.8-.4.5-.1 1.1-.1 1.6 0 .2 0 .9.1 1.3.3h.1c1.2-.2 2.4-.3 3.6.3.7 0 1.4 0 2.1.1 1.1.1 2.3.1 3.3.4H85.6c.7-.1 1.4-.1 2.2-.2h.1c.3-.1.5-.2.8-.3.2-.1.3 0 .4.1.1 0 .2-.1.3-.1.1 0 .2 0 .2.1.5-.2 1-.4 1.5-.5h.1c.2-.2.5-.1.4.2-.1.6-.3 1-.7 1.5-.3.4-.6.8-1 1.1.3 0 .7-.1 1-.1.1-.1.3-.2.4-.3.4-.4.9-.9 1.2-1.4.1-.2.4.1.3.2-.1.1-.2.2-.2.4v.1c0 .1-.1.1-.1.1v.2c-.2.7-.6 1.4-1.1 2 .1.1.1.2.1.3-.4 1.1-1.6 2.1-2.7 2.7-.2.1-.5.1-.6-.1-1.6.2-3.5.2-5.3.2-1.3 0-3 .1-4.2-.6-.8.1-1.7-.2-2.6-.4-1 .5-2.1.1-3.1-.2-.4-.1-.7-.3-1.1-.4-.3.1-.7.1-1.1.1h-.5c-.3.3-.6.5-1 .8-.5.3-1 .7-1.6.8h-.2c-.3.2-.6.4-.9.5-.1.2-.2.4-.4.6-.1.1-.2.1-.3.1-.2.2-.4.4-.7.4-.2 0-.3-.2-.3-.3 0-.5.3-.8.6-1.1z" fill="#080806" stroke-width="none" opacity="1"></path><path id="SvgjsPath17755" d="M84.8 84.3c1.4-.6 2.8-1 4.1-1.8 1.4-.8 2.5-1.9 3.7-3.1.1-.1.3 0 .2.2-1.6 2.4-4.8 4.8-7.8 5-.3.1-.4-.2-.2-.3zm.4.6c1.9-.4 3.6-.9 5.2-1.9.1-.1.2.1.1.2-1.5 1.2-3.4 2-5.3 2-.1-.1-.1-.3 0-.3zm-2.8-1.3c1.1-.7 2.2-1.3 3.3-2.1s1.9-1.8 2.8-2.7c.1-.1.2 0 .2.1-1.1 2.1-3.8 4.3-6.2 4.8-.2.1-.2-.1-.1-.1zm-5.6.7c2.6-1.4 5-2.5 6.5-5.2.1-.1.2 0 .2.1-1.2 2.6-3.8 4.6-6.6 5.3-.2 0-.3-.2-.1-.2zm-3.5-1.1c.7-.7 1.6-1.3 2.2-2.1.7-.9 1.1-1.9 1.7-2.8.1-.1.3-.1.2.1-.2 1.9-2.2 4.5-4 5.1-.1.1-.2-.1-.1-.3zm-2.6-.1c1.6-1.5 3-2.8 3.9-4.8.1-.1.3 0 .2.1-.7 2-1.9 4.1-3.9 5-.1 0-.3-.2-.2-.3zm-5.6 1.8c.9-.6 1.9-.9 2.9-1.3.8-.3 1.6-.7 2.5-.4.1 0 .1.2 0 .2-.9-.1-1.8.4-2.7.8-.8.3-1.7.8-2.6.9-.2.1-.3-.1-.1-.2z" fill="#171714" stroke-width="none" opacity="1"></path><path id="SvgjsPath17756" d="M64 87c-.2.2 0 .4.2.4h.1c.1.1.3.1.4 0 0-.1.1-.1.1-.1 1.1-.4 2.1-1.2 3-1.8.9-.5 1.8-1 2.6-1.7 2.9.8 6.2.9 9.2 1.2 2.9.2 6 .4 9 .2.1.1.2.1.3.1.1 0 .1-.1.1-.1h.3c.2 0 .2-.2.2-.3 2.1-1.5 3.5-3.7 3.7-6.3 0-.1 0-.1-.1-.1 0-.1-.2-.2-.3-.1l-1.2 1.2-.1.1c.3-.4.4-1 .5-1.5 0-.3-.3-.3-.4-.1-.2.6-.4 1.1-.8 1.6-.3.4-.9.8-1.1 1.2-.1.1 0 .2.1.2.2 0 .5-.1.7-.3h.1c.6-.2 1-.5 1.5-.9.2-.2.5-.5.7-.8-.6 2.3-1.9 4.2-3.9 5.4-1.6-.1-3.1-.1-4.7-.2 1-.5 2-1.3 2.7-1.9 1.3-1.1 2.3-2.5 3-4.1.7-.1 1.3-.3 1.9-.6.1-.1.1-.2-.1-.2-1 0-1.9.3-2.9.4-.9.1-1.8.1-2.7.1-1.8 0-3.6-.1-5.4-.3-3.6-.3-7.6-1.1-11.2-.7-.2 0-.3.2-.3.4-1.1 1.4-1.9 3-2.7 4.6-.7 1.4-1.6 3-2 4.5l-.5.5zm1.5-1.1c.6-1.2 1-2.4 1.6-3.6.8-1.5 1.6-2.9 2.3-4.5 2 .1 4 0 5.9.2 1.9.2 3.8.4 5.7.5 1.9.2 3.8.3 5.7.2.8 0 1.8-.1 2.7-.2-.9 1.4-1.9 2.6-3.2 3.6-.7.5-1.4 1-2.2 1.4-.6.3-1.2.4-1.7.8h-.9c1.6-.9 3.1-2.4 3.6-4.1.1-.2-.2-.3-.3-.2-.6.7-1.1 1.6-1.8 2.3-.7.7-1.5 1.3-2.3 1.9h-.7c-1.5-.1-3.1-.3-4.6-.4.9-.8 1.6-2 1.8-3.1 0-.1-.2-.2-.2-.1-.3.6-.6 1.2-1 1.7-.3.5-.8.9-1.2 1.3-1.1-.2-2.2-.4-3.3-.5.1-.1 0-.4-.2-.3-.2.1-.4.2-.7.3 0 0-.1 0-.1.1-1 .5-1.9 1.1-2.8 1.6-.8.4-1.4.7-2.1 1.1z" fill="#000000" stroke-width="none" opacity="1"></path></g></g></g><g id="svga-group-eyebrows-right-move" transform="matrix(1,0,0,1,0,0)"><g id="svga-group-eyebrows-right-rotate" transform="matrix(1,0,0,1,0,0)"><g id="svga-group-eyebrows-right" transform="matrix(1,0,0,1,0,0)"><path id="SvgjsPath17757" d="M134.5 85.3c-.1-.5-.4-.9-.6-1.4-.2-.5-.5-1.1-.8-1.5.1-.2.1-.5-.1-.7-.4-.6-.9-1.1-1.2-1.8-.3-.6-.5-1.3-.9-1.8-.5-.7-1.8-.6-2.8-.4-.5-.1-1.1-.1-1.6 0-.2 0-.9.1-1.3.3h-.1c-1.2-.2-2.4-.3-3.6.3-.7 0-1.4 0-2.1.1-1.1.1-2.3.1-3.3.4H114.4c-.7-.1-1.4-.1-2.2-.2h-.1c-.3-.1-.5-.2-.8-.3-.2-.1-.3 0-.4.1-.1 0-.2-.1-.3-.1-.1 0-.2 0-.2.1-.5-.2-1-.4-1.5-.5h-.1c-.2-.2-.5-.1-.4.2.1.6.3 1 .7 1.5.3.4.6.8 1 1.1-.3 0-.7-.1-1-.1-.1-.1-.3-.2-.4-.3-.4-.4-.9-.9-1.2-1.4-.1-.2-.4.1-.3.2.1.1.2.2.2.4v.1c0 .1.1.1.1.1v.2c.2.7.6 1.4 1.1 2-.1.1-.1.2-.1.3.4 1.1 1.6 2.1 2.7 2.7.2.1.5.1.6-.1 1.8.1 3.7.1 5.6.1 1.3 0 3 .1 4.2-.6.8.1 1.7-.2 2.6-.4 1 .5 2.1.1 3.1-.2.4-.1.7-.3 1.1-.4.4.1.7.1 1.1.1h.5c.3.3.6.5 1 .8.5.3 1 .7 1.6.8h.2c.3.2.6.4.9.5.1.2.2.4.4.6.1.1.2.1.3.1.2.2.4.4.7.4.2 0 .3-.2.3-.3-.3-.4-.6-.7-.9-1z" fill="#080806" stroke-width="none" opacity="1"></path><path id="SvgjsPath17758" d="M115.2 84.3c-1.4-.6-2.8-1-4.1-1.8-1.4-.8-2.5-1.9-3.7-3.1-.1-.1-.3 0-.2.2 1.6 2.4 4.8 4.8 7.8 5 .3.1.4-.2.2-.3zm-.4.6c-1.9-.4-3.6-.9-5.2-1.9-.1-.1-.2.1-.1.2 1.5 1.2 3.4 2 5.3 2 .1-.1.1-.3 0-.3zm2.8-1.3c-1.1-.7-2.2-1.3-3.3-2.1s-1.9-1.8-2.8-2.7c-.1-.1-.2 0-.2.1 1.1 2.1 3.8 4.3 6.2 4.8.2.1.2-.1.1-.1zm5.6.7c-2.6-1.4-5-2.5-6.5-5.2-.1-.1-.2 0-.2.1 1.2 2.6 3.8 4.6 6.6 5.3.2 0 .3-.2.1-.2zm3.5-1.1c-.7-.7-1.6-1.3-2.2-2.1-.7-.9-1.1-1.9-1.7-2.8-.1-.1-.3-.1-.2.1.2 1.9 2.2 4.5 4 5.1.1.1.2-.1.1-.3zm2.6-.1c-1.6-1.5-3-2.8-3.9-4.8-.1-.1-.3 0-.2.1.7 2 1.9 4.1 3.9 5 .1 0 .3-.2.2-.3zm5.6 1.8c-.9-.6-1.9-.9-2.9-1.3-.8-.3-1.6-.7-2.5-.4-.1 0-.1.2 0 .2.9-.1 1.8.4 2.7.8.8.3 1.7.8 2.6.9.2.1.3-.1.1-.2z" fill="#171714" stroke-width="none" opacity="1"></path><path id="SvgjsPath17759" d="M135.6 86.7c-.4-1.6-1.3-3.1-2-4.5-.8-1.6-1.6-3.2-2.7-4.6 0-.2-.1-.4-.3-.4-3.7-.5-7.6.3-11.2.7-1.8.2-3.6.3-5.4.3-.9 0-1.8-.1-2.7-.1-1-.1-1.9-.4-2.9-.4-.1 0-.2.2-.1.2.6.3 1.2.5 1.9.6.7 1.6 1.7 3 3 4.1.7.6 1.7 1.4 2.7 1.9-1.6.1-3.1.1-4.7.2-2-1.2-3.4-3.2-3.9-5.4.2.3.5.5.7.8.4.4.9.8 1.5.9h.1c.2.2.4.3.7.3.1 0 .2-.1.1-.2-.2-.5-.8-.8-1.1-1.2-.4-.5-.6-1.1-.8-1.6-.1-.2-.4-.2-.4.1 0 .5.2 1 .5 1.5l-.1-.1-1.2-1.2c-.1-.1-.3 0-.3.1l-.1.1c.2 2.6 1.6 4.9 3.7 6.3 0 .1 0 .3.2.3h.3c.1 0 .1.1.1.1.1.1.2 0 .3-.1 3 .2 6 0 9-.2s6.3-.3 9.2-1.2c.8.6 1.8 1.1 2.6 1.7.9.6 1.9 1.3 3 1.8 0 .1.1.1.1.1.1.2.3.2.4 0h.1c.2.1.4-.2.2-.4-.2-.3-.3-.4-.5-.5zm-3-1.9c-.9-.6-1.8-1.2-2.8-1.6 0 0-.1 0-.1-.1l-.6-.3c-.2-.1-.3.2-.2.3-1.1.1-2.2.3-3.3.5-.4-.4-.8-.8-1.2-1.3-.4-.6-.7-1.1-1-1.7-.1-.1-.2 0-.2.1.2 1.1.9 2.3 1.8 3.1-1.5.2-3.1.3-4.6.4h-.7c-.8-.6-1.7-1.2-2.3-1.9-.7-.7-1.2-1.5-1.8-2.3-.1-.2-.4 0-.3.2.5 1.7 2 3.2 3.6 4.1h-.9c-.5-.4-1.1-.6-1.7-.8-.8-.4-1.5-.9-2.2-1.4-1.3-1-2.3-2.2-3.2-3.6.9.1 1.8.2 2.7.2 1.9.1 3.8 0 5.7-.2 1.9-.2 3.8-.4 5.7-.5 2-.2 4-.1 5.9-.2.6 1.6 1.5 3 2.3 4.5.6 1.1 1 2.4 1.6 3.6-1-.4-1.6-.7-2.2-1.1z" fill="#000000" stroke-width="none" opacity="1"></path></g></g></g><g id="svga-group-beardwrap" transform="matrix(1,0,0,1,0,0)"><g id="svga-group-beard-single-move" transform="matrix(1,0,0,1,0,0)"><g id="svga-group-beard-single" transform="matrix(1,0,0,1,0,0)"></g></g></g><g id="svga-group-mustache-single-move" transform="matrix(1,0,0,1,0,0)"><g id="svga-group-mustache-single" transform="matrix(1,0,0,1,0,0)"><path id="SvgjsPath17987" d="M98.2 117.6c1.1.1 1.1 3.2.3 3.7s-17.2-.2-18-.7 0-1.2 1.5-1.6c1.5-.3 11-1.9 16.2-1.4zm4.9 0c-1.1.1-1.1 3.2-.3 3.7s17.2-.2 18-.7 0-1.2-1.5-1.6c-1.5-.3-11-1.9-16.2-1.4z" fill="#080806" stroke-width="none" opacity="1"></path><path id="SvgjsPath17988" d="M97.8 118.4c-.5.3-.9.8-1.4 1.2-.5.4-1.1.7-1.7 1-.2.1-.1.4.1.3.7-.2 1.3-.5 1.8-.9s1.1-.8 1.4-1.3c.2-.1 0-.4-.2-.3zm-1.3 0c-.8.3-1.5.8-2.3 1.1l-2.4.9c-.1.1-.1.3.1.3 1.6-.2 3.6-1 4.8-2 .2-.1 0-.4-.2-.3zm-3.8.4c-1.1.5-2.3.9-3.4 1.5-.1.1-.1.3.1.3 1.2-.1 2.5-.7 3.6-1.4.1-.3-.1-.5-.3-.4zm-4.4.3c-.5.2-1 .4-1.4.6-.5.2-1 .3-1.4.6-.2.1-.1.4.2.3 1-.1 2.1-.8 2.9-1.3 0-.1-.1-.3-.3-.2zm-4.1.6-.9.3c-.1.1 0 .3.1.2l.9-.3c.1 0 .1-.2-.1-.2zm20.3 1.2c-.2-.3-.6-.6-.8-1l-.6-1.2c-.1-.2-.3-.2-.3 0 0 .9.6 2.1 1.5 2.5.1.1.3-.1.2-.3zm2.8-.3c-.5-.2-1.1-.2-1.6-.5-.5-.2-.9-.6-1.3-1-.1-.2-.4.1-.3.2.7.9 1.9 1.8 3.2 1.7.2-.1.2-.3 0-.4zm2.6-.5c-.5-.4-1.1-.5-1.6-.8-.6-.3-1.1-.5-1.6-.8-.2-.1-.4.2-.2.4.6.3 1.2.7 1.8 1 .5.2 1 .5 1.6.6.1-.1.1-.3 0-.4zm2.9.4c-.9-.6-1.9-.9-2.9-1.5-.2-.1-.4.2-.2.3.9.6 1.9 1.2 2.9 1.4.2.1.3-.1.2-.2zm1.9.1c-.9-.5-1.9-1-2.7-1.8-.1-.1-.3 0-.2.2.7 1 1.6 1.9 2.8 1.9.1 0 .2-.2.1-.3zm1.7-.3c-.6-.3-1.1-.4-1.5-.9-.1-.1-.3 0-.2.1.3.6.9 1.2 1.7 1.1.1 0 .2-.2 0-.3zm2.4-.1c-.4-.2-.8-.3-1.1-.6-.2-.2-.5.1-.3.3.3.3.8.7 1.3.8.3-.1.3-.4.1-.5zm-36-.7c-.5.1-.9.2-1.4.5-.1.1 0 .3.1.2.5-.1.9-.3 1.3-.6.1 0 .1-.1 0-.1z" fill="#000000" stroke-width="none" opacity="1"></path></g></g><g id="svga-group-nose-single-move" transform="matrix(1,0,0,1,0,0)"><g id="svga-group-nose-single" transform="matrix(1,0,0,1,0,0)"><path id="SvgjsPath17946" d="M109.05 113.12c.28.89.49 2.03-.2 2.51-.69.49-2.8-.08-3.4 0s-1.26.12-2.03.89-1.62 2.15-2.76 2.07c-1.13-.08-1.82-.89-2.39-1.54s-1.78-1.78-2.43-1.9-1.78.65-2.63 1.18c-.85.53-2.39.65-2.43-1.09-.04-1.74 1.54-7.46 1.9-8.71.36-1.26 1.78-4.86 2.39-5.96.61-1.09 6.2-3.61 9.04 0s4.94 12.55 4.94 12.55z" fill="#73512d" stroke-width="none" opacity="1" transform="translate(0 1)"></path><path id="SvgjsPath17947" d="M95.41 99.54c-2.42 4.09-3.81 8.9-4.62 13.56-.19 1.09-.85 3.07.4 3.8.94.55 2-.14 2.72-.74.17-.14-.05-.41-.23-.3-3.43 2.04-2.36-2.33-2.12-3.62.27-1.49.62-2.97 1.04-4.42.8-2.81 1.95-5.47 3.03-8.17.05-.14-.15-.22-.22-.11z" fill="#452706" stroke-width="none" opacity="1" transform="translate(0 1)"></path><path id="SvgjsPath17948" d="M92.73 114.39c1.98.45 3.69 1.11 5.06 2.68.69.78 1.27 1.84 2.39 2.05 3.17.6 3.33-4.52 6.24-4.77.33-.03.34-.5 0-.52-3.06-.15-4.19 6.6-7.29 3.72-.95-.88-1.57-1.93-2.72-2.62-1.11-.67-2.33-1.02-3.62-.95-.23 0-.3.35-.06.41z" fill="#452706" stroke-width="none" opacity="1" transform="translate(0 1)"></path><path id="SvgjsPath17949" d="M105.14 115.86c1.2-.21 3.1 1.16 4.14.01.81-.9.07-2.83-.15-3.8-.92-4.09-2.38-8.7-4.96-12.08-.18-.23-.52-.04-.39.23 1.44 3.25 3.1 6.25 4.15 9.69.23.77.45 1.54.63 2.32.1.45.2.89.29 1.34.52.92.27 1.44-.73 1.58-1.28.64-.86.17-2.02.17-.61 0-.53 0-1.06.28-.17.07-.05.28.1.26z" fill="#452706" stroke-width="none" opacity="1" transform="translate(0 1)"></path><path id="SvgjsPath17950" d="M97.56 106.48c2.43-1.42 4.5-.86 6.61.77.18.14.48-.03.34-.27-1.47-2.51-5.14-2.59-7.2-.83-.18.16.05.45.25.33z" fill="#452706" stroke-width="none" opacity="1" transform="translate(0 1)"></path><path id="SvgjsPath17951" d="M102.21 107.74c-1.68-.7-4.03-1.05-5.37.46-.23.26-.26.79.12.96 1.91.84 3.92.73 5.56 2.23.8.74 2.87 2.56 3.3.4.39-1.91-2.17-3.44-3.61-4.05z" fill="#7b5936" stroke-width="none" opacity="1" transform="translate(0 1)"></path></g></g><g id="svga-group-hair-front" transform="matrix(1,0,0,1,0,0)"><path id="SvgjsPath18000" d="M155.5 145.7c-1-.6-1.9-1.1-2.7-1.8 0-.1 0-.3-.1-.4-6.5-6.2-10.2-13.3-12.2-20.8 0-.6-.1-1.2-.1-1.8 0 .1.1.2.1.3.4 1.6.8 3.1 1.3 4.6.1.2.2.2.3.2.9 2.3 2.1 4.5 3.4 6.6.8 1.4 1.8 2.7 2.9 4 .1.1.2.1.3.1.6.7 1.2 1.3 1.8 2 .3.3.8-.2.5-.5-1-1.2-1.9-2.4-2.7-3.6-5.7-10-6.4-20.7-5.4-31.7 1.6-6.1 3.5-12.1 5-18.3 0-.2.1-.3.1-.5l.1-.1c1.1-3.2 1.7-6.4 1.9-9.7.2-1.3.3-2.6.3-4 .1-4.8-.1-11.5-3.1-15.8.1-.4 0-.8-.1-1.2-.5-1.1-1.1-2.2-1.7-3.1-1.8-5-4.9-9.6-8.3-13.6-1.4-1.7-2.9-3.2-4.4-4.5-5.4-5.8-12.9-9.8-21-11.2-13.7-2.3-35.4 2.3-35.2 19.7-7.2-2.2-15.4 1.3-20.2 6.8-2.8 3.2-4.5 6.9-5.4 10.9-2 4.6-2.7 9.6-2.2 14.7-.1 1.6.1 3.2.5 4.8.2 2.6.5 5.3.6 7.9 0 .2.3.3.4.1.4-.9.7-1.8.8-2.7.8 1.9 2 3.7 3.7 5.1l.1.1c.2.3.3.5.5.8.4.9.8 1.8 1.1 2.8l.3 1.2c-.1 0-.1.1-.1.2.2.5.3.9.5 1.4.7 3 1.4 5.9 2 8.9.9 7.2.2 14.2-.4 21.8 0 .3.2.5.5.5V126.5c-.1.5-.1 1-.2 1.4 0 .3.5.5.5.2.2-.8.4-1.6.5-2.3 5.4-11.5 2.4-24.1 1.3-36.3-1.4-15.5 2.5-31 19.4-33.9.3 0 .6.1 1 .2.6.1 1.1-.5.8-1-.1-.2-.3-.4-.4-.5.1 0 .2 0 .3-.1.1.2.1.3.2.5s.4.2.6 0c.2.2.3.4.6.6.5.5 1.5 0 1.4-.7h.5c.2.3.6.1.6-.2l.1-.1c.6.5 1.3.9 2.2 1 .4 0 .7-.5.6-.8.1 0 .1-.1.1-.1.7.8 1.5 1.4 2.4 2 .8.5 1.5-.5 1.1-1.2.5.4 1 .8 1.8 1 .5.2.9-.2 1-.6.1 0 .1.1.2.1.3.5.7 1.1 1.1 1.5.7.7 2 0 1.7-1 .5.6 1.6.6 1.8-.1.3.4.6.7 1 1 .6.4 1.7.2 1.6-.7 0-.3-.1-.6-.1-.9.2.5.5 1 .8 1.4.4.5 1.5.1 1.4-.6-.1-.7 0-1.4 0-2 .2-.1.4-.2.5-.3-.1.6-.1 1.3 0 1.9.2.9 1.7.9 1.8 0 .1-.7.3-1.4.7-2-.2.5-.3 1-.3 1.6 0 1 1.4 1.5 1.9.5.3-.5.6-1 1-1.5v.7c.1 1 1.2 1.3 1.8.5.5-.8 1.1-1.4 1.7-1.9-.3.4-.6.9-.7 1.4-.1.5.4 1 .9.7.2-.2.5-.3.8-.5.1.1.3.2.6.2 1-.2 2.1-.3 3.2-.3 4.1.3 7.4 2.1 10.3 4.8 2.6 4 4.4 8.8 5.4 12.8 1 4.2 1.1 8.4.6 12.5-4.3 14.1-9.2 32.2-2.8 46 1.1 4.7 3 9.2 6.1 13.2.2.2.5 0 .4-.2-1.9-3-3.3-6-4.3-9.1 1.4 2 3 3.9 5 5.7 1.6 1.5 3.4 2.8 5.5 3.9.8.4 1.6.1 2.1-.5 1.5 1 3.1 1.7 4.8 2.2.2.1.4-.1.4-.2.3.1.6.3.8.4.5.2.8-.2.7-.6.1 0 .1.1.2.1.2.1.3 0 .4-.1.3.1.6.3.9.4.1-.1.4-.7 0-.9zm-94.3-43.4c-.1-.6-.2-1.2-.4-1.8-.1-.9-.2-1.8-.3-2.6 0-.6-.1-1.2-.2-1.7-.2-1.2-.3-2.4-.4-3.5-.3-3.2-.2-6.4-.2-9.6v-.3c-.1 6.5.9 13 1.5 19.5zm8.5-60.8c-5.7 1.2-11.1 5.6-14.5 9.8 3.3-5.3 8.5-9 15.3-10-.3 0-.5.1-.8.2zm69.7 55.1c-.4 3.2-.7 6.4-.7 9.7-.1.7-.1 1.4-.2 2.1-.1-2.6-.1-5.1-.1-7.7.3-1.5.6-2.8 1-4.1zm1.9 4-.3 3c0 .1-.1.2-.1.3.1-2.1.3-4.2.5-6.2.2-.7.3-1.3.5-2-.2 1.7-.4 3.3-.6 4.9zM76.5 41.9c-.8-.5-1.8-.8-2.7-.8.9 0 1.8 0 2.7.1v.7zm5.8-9c-2.3 1.6-4.2 3.7-5.1 6C80 22.4 100.6 19 114.6 22.6c4.7 1.2 9.1 3.3 12.8 6-2.9-1.6-6.2-2.7-9.8-3.2-.6-.1-1.2-.2-1.8-.2-.4-.1-.8-.2-1.3-.3-9.6-2.2-25.8-.9-32.2 8zm11.9-4.3h-.3c-.9.1-1.8.2-2.8.4 7.5-3.2 17-3.2 24.7-2.3.4 0 .8.1 1.2.2.1 0 .2.1.4.1 7.3 2.3 14.2 6.5 19.2 12.1.1.1.1.2.2.4-.6-.6-1.2-1.1-1.8-1.6-5.2-6.1-13.4-9.9-21.1-10.9-6.4-1-13.3-.4-19.7 1.6zm42.2 94.5c.2.6.3 1.2.5 1.7.6 3.1 1.6 6.2 2.9 8.9-1.8-3.3-2.9-6.9-3.4-10.6zm3.6 5.8c-1.1-3.2-1.9-6.5-2.2-10 .4 2.1.9 4.2 1.5 6.2.4 1.8.9 3.7 1.6 5.5-.3-.5-.6-1.1-.9-1.7z" fill="#080806" stroke-width="none" opacity="1"></path><path id="SvgjsPath18001" d="M154 138.8c-6.8-4.1-10.6-9.5-12.7-15.6-2.8-10.1-2.3-20.6-.6-31.2 1.7-11 4-22.9-.3-33.6-.2-3.2-.7-6.3-1.9-9.3-4-9.9-14.2-16.1-24.7-15.4-8.8.6-22 5.4-24.3 14.9-.3.9-.4 1.8-.4 2.8v.8c0 .1.1.2.2.3.2 1.3.7 2.9 1.9 3.4.2.1.6-.2.3-.4L91 55v-.2c-.2-.2-.3-.5-.4-.7-.2-.6-.4-1.3-.5-1.9v-.6c.1 1.2.5 2.5 1.2 3.7.2.3.8.1.6-.2-.4-.9-.6-1.8-.7-2.7.2 1.1.6 2.2 1.2 3.2.2.2.6.1.5-.2-.1-.4-.3-.8-.4-1.1.2.1.3.2.5.3 0 .2.1.4.1.6.1.3.7.3.6-.1v-.5c.1-.1.1-.2.1-.3.1 0 .3 0 .3-.2.1-2.1.6-4 1.4-5.7-.8 1.7-1.1 3.7-.8 5.9.1.4.6.3.6-.1-.1-7.2 4.9-11.3 11.3-12.9-4.9 3-8.1 8.7-5.8 15.2.1.3.7.3.7-.1-.5-5.4.3-11.2 5.6-14.2l1.2-.6c-4.1 3.4-4.6 9.5-3.4 14.5.1.4.7.3.7-.1-.4-5.1-.3-11.4 4.8-14.3 1-.6 2.1-.9 3.2-1.1 1.5 0 3 .2 4.5.4 1.8.4 3.4 1.2 4.8 2.1-.6-.1-1.2-.1-1.8-.1-7-.2-16.2 4.5-15 12.6.1.5.8.3.8-.1.9-10.6 12.3-12 20.5-8.7 1 1.1 1.9 2.4 2.5 3.6.1.2.3.2.5 0 .4 1 .8 1.9 1.1 2.9-1.1-.8-2.3-1.6-3.5-2.2-1.7-.9-3.8-1.4-5.8-1.3-3.8-.3-7.9.6-9.3 4.4-.3.4-.6.8-.9 1.3-.3.5.4.8.7.4 1.1-1.4 2.4-2.3 3.9-2.9-.7.5-1.2 1.1-1.7 1.9-.2.4.3.7.6.4l1.2-.9c0 .1.1.2.1.2-.1 0-.1.1-.2.1-.3.2-.1.7.2.6.4-.2.8-.3 1.2-.4.1.2.2.3.4.3 9.9-1.5 13.4 5.1 14.6 13.2v1.4c0 .1.1.2.2.2.7 6.3.2 13.4.3 18.2-3.2 19.1-4.4 47.9 17.8 55.8.4.1.6-.4.2-.6-6.7-3-11.2-7.9-14.1-13.8l.6.9c1.1 2.1 2.5 4 4.2 5.8.2.2.7-.1.5-.4-.1-.2-.2-.3-.3-.5.3.3.6.6 1 .9.2.2.5-.1.3-.3-1.3-1.3-2.4-2.6-3.4-4-6.9-12.1-6.6-25.6-3.1-39.3.4-1.4.8-2.9 1.2-4.3-.2 4.2-.6 8.4-.7 12.6-.3 9.4.7 20.5 5.7 28.8.6 1.1 1.2 2.3 1.9 3.4.1.2.4 0 .3-.2-.1-.1-.1-.2-.1-.3 2.2 2.8 5 5.1 8.6 6.7-.1.2.2-.3-.1-.6zM92.8 53c-1.7-2.5 3.2-9.2 4.2-10.3 1.2-1.2 2.5-2.2 4-3l1.2-.3c-5.4 2.8-9.6 7.8-9.4 13.6zm3.4-6.1c3.1-4.9 9.1-7.7 15.4-7.8h1.3c-6 .4-13.4 2.8-16.7 7.8zm33-1.6c-1.1-1-2.2-2-3.5-2.8-4.8-4.2-10.8-6.9-17.3-6.6 6-1.5 12.4-1.2 17.9 1.8 6.8 3.7 10 9.4 11.5 15.8-2.2-3.3-5.1-6.2-8.6-8.2zm6 27.8c-.1-3.1-.5-6.2-1.5-9v-2.2c.3.5.5 1 .8 1.5.2.5.4 1.1.6 1.6.2 2.7.2 5.4.1 8.1zm-1.4-19.7c-.1-.3-.3-.6-.5-1 1.1 1.9 2.1 4 2.9 6.1-.3-.4-.6-.8-.9-1.3-.4-1.2-.9-2.5-1.5-3.8zm-5.4 2.8c1.5.9 2.9 2.2 4 3.7.1.5.1.9.1 1.4-.9-2-2.4-3.7-4.1-5.1zm4.8 42.9c0-.3.1-.6.1-1 .6-4.9 1.6-9.8 2.4-14.7.1 0 .2-.1.2-.2 1-3.4 1.6-7.1 1.7-10.8.3 2.1.4 4.2.5 6.2-1.1 7-3.4 13.6-4.9 20.5zm5.7-28.9c-.4-2.3-1-4.5-1.8-6.6.1 0 .2-.1.2-.2 0-.7-.1-1.3-.2-1.9.1.2.2.4.4.6.7 2.7 1.2 5.4 1.4 8.1zm-2.1-13.4c-.6-1.5-1.3-2.9-2.1-4.2 1.8 2.2 3.1 4.7 4 7.3.1 1 .1 2.1.2 3.1-.5-2.1-1.2-4.2-2.1-6.2zm3 24c.4-2.1.6-4.3.7-6.5 0-1.4-.1-2.7-.2-4.1 0-.9.1-1.8.1-2.7v-1.6c.8 4.9.8 9.9.4 14.7-.4 4.8-1 9.6-1.5 14.4.2-4.8.5-9.6.5-14.2zM78.9 55.4c-13.4-6-22.8 11.8-21.8 22.7 0 .2.3.2.3 0 0-6 1-11.8 4.9-16.5 4-4.9 10.2-7.8 16.4-5.8.2.1.4-.3.2-.4zm62.6 52.8c-.3-8.6 2-16.2 4.7-24.2 4.4-13.2 5-29.4-3.6-41.2-7.5-10.2-22.5-13-34.4-11.3C97.1 33.1 86 41 86.6 53.2c0 .4.6.4.6 0 .1-17.1 18.4-22.4 32.5-20.9 7 .8 14.5 3 19.6 8 5.5 5.4 8.1 13.3 8.9 20.8.9 7.5-.3 14.7-2.6 21.8-1.9 5.7-3.9 11.2-4.7 17.1-1.4 11.5 1.1 23.1 7.1 33 .2.3.6 0 .5-.3-4.1-7.5-6.6-15.8-7-24.5zm-34.3-81.7c-12.8 1.8-26.5 11.9-24.1 26.4 0 .2.4.2.4-.1-.8-14.7 10.6-23 23.8-25.9.3-.1.2-.5-.1-.4zm-21.8 7.8C81.2 38.8 78.8 45 81 51c.1.2.4.1.3-.1-1.7-6.2.9-11.4 4.4-16.4.2-.2-.1-.4-.3-.2zm7.7-7.1c-7.9 2.5-15.4 8.5-15.2 17.5 0 .2.3.2.3 0 .5-9 7.6-13.9 15.1-17.1.2-.1 0-.5-.2-.4zM80.5 54.1c-4.7-4.3-10.8-2-15.7.8-6.6 3.7-11.3 8.5-12.3 16.3-1.1 8.7 2.3 17.5 4.7 25.7 3 10.5 5 21.6-.5 31.8-.2.4.4.8.6.4 7.3-12.2 2.5-26.2-1.1-38.7-2.4-8.3-5.1-18-.7-26.1 3.9-7 17.1-15.1 24.6-9.7.3 0 .6-.3.4-.5zm-3.4-4.5c-9.1-6.8-20.6 4.1-23.2 12.5-.1.2.3.3.4.1 3.3-8.3 13.1-17.5 22.6-12.2.2.2.5-.2.2-.4zm-.8-2.3C74.2 44 70 44.6 67 46.2c-.2.1-.1.4.1.3 3-1.1 6.7-2.1 9 .9 0 .1.3 0 .2-.1z" fill="#000000" stroke-width="none" opacity="1"></path><path id="SvgjsPath18002" d="M138 41.5c-.2-.2-.4.1-.3.3 7.5 9.6 10.3 21 8.6 33-.1.4.5.5.6.2 3-12-.7-24.7-8.9-33.5zm7 19.1c0-.1-.3-.1-.2 0 1 10.8.1 21.2-2.1 31.8-.1.3.3.4.4.1 3-10.3 3.5-21.2 1.9-31.9zm-10.5-17.4c-6.2-7.3-17.7-10.8-26.9-9-7.9 1.5-20 7.6-19.5 17 0 .5.7.5.7 0 .3-11.9 18.7-17.6 28.2-15.9 5.1.9 10.4 3.3 14.4 6.7 5 4.1 6.9 10.7 8.1 16.8 2.3 12-.2 23-3.4 34.5-2.4 8.8-4.3 17.8-1.5 26.8.1.3.6.2.5-.1-3.8-15.2 4.1-28.9 6.1-43.7 1.3-10.2.4-24.9-6.7-33.1zM79 54.2c-11.2-2-18.8 8.6-20.2 18.5-2 14.5 5 28.3 2.3 42.7.6-7.4-.4-14.9-2.9-22 0-.1-.3-.1-.2.1 3.9 12.6 3.4 25.4-1.1 37.8-.1.2.2.3.3.1 1.7-4.1 2.9-8.4 3.5-12.7l.1-.1c4.4-11 .5-22.7-.9-34-1.6-12.9 2.2-31.1 19-29.7.4-.1.4-.6.1-.7zm-1.7-3.9C67 47.2 57.7 54.6 54.2 63.9c-.1.2.2.3.3.1 4.3-9.1 12.2-15.3 22.7-13.3.3.1.4-.4.1-.4zM76 45.8c-7.6-1.5-13.7-.7-18.6 5.7-4.1 5.3-5.8 11.9-4.8 18.4 0 .2.3.1.3 0-.4-5.6.6-11.4 3.7-16.2 4.7-7.3 10.9-8.6 19.2-7.4.4.1.5-.4.2-.5zm53.1-9C114 22.1 87 31 84.2 52c0 .3.4.4.4.1 5-20.5 27.6-28.5 44.2-15.1.2.2.4 0 .3-.2zm-46.1 6c-1.7 2.2-3.4 5-1.7 7.6.1.2.4 0 .3-.2-1.5-2.5.2-5.1 1.6-7.3 0-.1-.1-.2-.2-.1zm68 99.8c-8.2-9.9-13.3-21.4-13.5-34.3 0-.2-.2-.2-.2 0-.1 12.8 4.3 25.5 13.5 34.6.1 0 .3-.2.2-.3zm-3.6-1.5c-5.2-3.4-9.1-7.7-11.4-13.6-.1-.3-.5-.2-.4.1 1.9 5.9 6 11.1 11.6 13.8.2.2.4-.1.2-.3z" fill="#171714" stroke-width="none" opacity="1"></path></g><g id="svga-group-glasses-single-move" transform="matrix(1,0,0,1,0,0)"><g id="svga-group-glasses-single" transform="matrix(1,0,0,1,0,0)"></g></g></g></g></g><rect id="svga-credit-rect" width="200" height="15" x="0" y="185" fill="#ecf0f1" opacity="0.5" style="display: none;"></rect><text id="svga-credit-text" font-family="Avenir Next, Roboto, Helvetica, Arial, sans-serif" font-size="10px" text-anchor="start" font-weight="400" size="10px" anchor="start" weight="400" fill="#333333" x="33.40447998046875" y="182.60824704170227" style="display: none;"><tspan id="SvgjsTspan17288" dy="13" x="33.40447998046875">Created on AvatarMaker.com</tspan></text></g></svg>