<svg xmlns="http://www.w3.org/2000/svg" version="1.1" width="600px" height="600px" viewBox="0 0 200 200" style="overflow:hidden!important;"><defs id="SvgjsDefs16396"><linearGradient id="SvgjsLinearGradient17123" x1="79.91" y1="76.79" x2="79.91" y2="108.93" gradientUnits="userSpaceOnUse" class="svga-on-canvas-glasses-gradient-single-0-null"><stop id="SvgjsStop17124" stop-opacity="1" stop-color="#b4c0cf" offset="0" ></stop><stop id="SvgjsStop17125" stop-opacity="0.9374" stop-color="#abbace" offset="0.0626" ></stop><stop id="SvgjsStop17126" stop-opacity="0.679" stop-color="#8aa3ca" offset="0.321" ></stop><stop id="SvgjsStop17127" stop-opacity="0.4305" stop-color="#7393c6" offset="0.5695" ></stop><stop id="SvgjsStop17128" stop-opacity="0.1987" stop-color="#6589c5" offset="0.8013" ></stop><stop id="SvgjsStop17129" stop-opacity="0" stop-color="#6086c4" offset="1" ></stop></linearGradient><linearGradient id="SvgjsLinearGradient17131" x1="120.1" y1="125.13" x2="120.1" y2="92.99" gradientTransform="matrix(1 0 0 -1 0 202)" gradientUnits="userSpaceOnUse" class="svga-on-canvas-glasses-gradient-single-1-null"><stop id="SvgjsStop17132" stop-opacity="1" stop-color="#b4c0cf" offset="0" ></stop><stop id="SvgjsStop17133" stop-opacity="0.9374" stop-color="#abbace" offset="0.0626" ></stop><stop id="SvgjsStop17134" stop-opacity="0.679" stop-color="#8aa3ca" offset="0.321" ></stop><stop id="SvgjsStop17135" stop-opacity="0.4305" stop-color="#7393c6" offset="0.5695" ></stop><stop id="SvgjsStop17136" stop-opacity="0.1987" stop-color="#6589c5" offset="0.8013" ></stop><stop id="SvgjsStop17137" stop-opacity="0" stop-color="#6086c4" offset="1" ></stop></linearGradient></defs><g id="svga-group-wrapper"><g id="svga-group-backs-single"><path id="SvgjsPath17071" d="M0 0h200v200H0V0z" fill="#ece5ce" stroke-width="none" opacity="1"></path><path id="SvgjsPath17072" d="M0 0h18.2v200H0V0zm36.4 0h18.2v200H36.4V0zm36.3 0h18.2v200H72.7V0zm36.4 0h18.2v200h-18.2V0zm36.3 0h18.2v200h-18.2V0zm36.4 0H200v200h-18.2V0z" fill="#ddd1ab" stroke-width="none" opacity="1"></path></g><g id="svga-group-humanwrap-move" transform="matrix(1,0,0,1,0,0)"><g id="svga-group-humanwrap" transform="matrix(1,0,0,1,0,0)"><g id="svga-group-hair-back-move" transform="matrix(1,0,0,1,0,0)"><g id="svga-group-hair-back" transform="matrix(1,0,0,1,0,0)"></g></g><g id="svga-group-humanbody-back"><path id="SvgjsPath16797" d="M166.5 181.1c-10.9-6.6-27.6-8.4-35-12.1-4.9-2.5-9.1-4.7-8.9-17.8s1.9-42.4 1.9-42.4H75.4s1.6 29.4 1.9 42.4-4.2 15.6-8.9 17.8c-7.4 3.5-24.1 5.4-35 12.1-10.8 6.6-10 18.9-10 18.9v19.7h153.3V200c-.1 0 .7-12.3-10.2-18.9z" fill="#d79468" stroke-width="none" opacity="1" stroke="none"></path></g><g id="svga-group-chinshadow-single"><path id="SvgjsPath17037" d="M75.3 163.1c10.5 6.8 14.6 11.7 24.7 11.7 10 0 14.1-4.9 24.6-11.7-1.3-2.5-2.1-6.2-2-11.9.2-13.1 1.9-42.4 1.9-42.4H75.4s1.6 29.4 1.9 42.4c.1 5.7-.6 9.4-2 11.9z" fill="#b86934" stroke-width="none" opacity="0.65"></path></g><g id="svga-group-humanbody-front"><path id="SvgjsPath16798" d="M78.7 156.8c.5 4.8 1.7 9.4 3.1 13.9.8 2.3 1.6 4.6 2.6 6.9.8 2 1.7 4.2 3.1 5.9.3.4 1 0 .9-.5-.5-2.2-1.6-4.3-2.4-6.4-.9-2.2-1.7-4.4-2.5-6.6-1.5-4.4-2.8-8.9-4.1-13.3-.2-.4-.8-.3-.7.1zm41.3-1c-1.3 8.2-3.9 16.1-5.4 24.2-.1.4.4.5.6.2 3.1-7.7 4.1-16.1 5.1-24.3-.1-.2-.3-.2-.3-.1zm-25.8 11.9c-.9 3.6 1.9 8.6 6.2 7.6.5-.1.4-.8 0-1-1.4-.5-2.9-.9-3.9-2.1-1.1-1.2-1.5-2.9-1.4-4.5 0-.4-.8-.5-.9 0z" fill="#b86934" stroke-width="none" opacity="1" stroke="none"></path><path id="SvgjsPath16799" d="M177.3 219.7c-.1-6.6-.3-13.1-.3-19.7l-.3-.3c.1 0 .1 0 .2.1s.1.2.1.1v-1.4c0-.5-.1-.9-.1-1.4-.1-.9-.3-1.9-.5-2.8-.5-1.8-1.1-3.6-2-5.3-1.7-3.4-4.4-6.2-7.7-8.1-3.6-2.2-7.6-3.8-11.6-5.1-4-1.3-8.1-2.4-12.1-3.5-4-1.2-8.1-2.2-11.8-4.2-1.9-1-3.6-2.1-4.8-3.6-1.2-1.6-1.9-3.5-2.3-5.5-.8-4-.4-8.2-.3-12.4l.7-12.6 1.5-25.2.1-1.4h-1.4c-8.2 0-16.4 0-24.6.1l-24.6.3h-.9l.1.9c.8 11.9 1.6 23.8 2.1 35.7.1 3 .3 6 .2 8.9-.1 2.9-.4 5.9-1.6 8.6-.6 1.3-1.4 2.5-2.4 3.5s-2.3 1.8-3.6 2.4c-2.6 1.3-5.4 2.2-8.3 3-5.8 1.5-11.6 2.8-17.3 4.7-2.8.9-5.7 2-8.4 3.4-1.3.7-2.7 1.4-4 2.4-1.3.9-2.4 1.9-3.5 3.1-2.1 2.3-3.6 5.2-4.5 8.1-.5 1.5-.8 3-1 4.6-.1.8-.1 1.6-.1 2.4v2.3l-.2 17.9v1.3h1.4l38.3.2c12.8.1 25.5.1 38.3 0 12.8-.1 25.6-.1 38.3-.3 12.8-.2 25.6-.5 38.3-.7h.6v-.5zm-77.2-1.6H61.8l-37 .2-.1-16.6v-2.2c0-.7 0-1.4.1-2.1.1-1.4.4-2.8.8-4.2.8-2.7 2.1-5.3 3.9-7.5.9-1.1 2-2.1 3.1-2.9 1.1-.9 2.4-1.6 3.7-2.3 2.6-1.4 5.3-2.5 8.1-3.5 5.6-2 11.4-3.4 17.1-5.1 2.9-.8 5.8-1.7 8.5-3.1 1.3-.7 2.7-1.5 3.8-2.6 1.1-1.1 2-2.4 2.6-3.9 1.2-2.9 1.5-5.9 1.6-8.9 0-3-.1-6-.2-9l-1.3-34.8 23.5.4c7.7.1 15.4.1 23.1.1-.4 7.9-.8 15.9-1.1 23.8-.2 4.2-.2 8.4-.3 12.6 0 4.2-.2 8.5.8 12.8.5 2.1 1.3 4.2 2.8 6 1.4 1.7 3.4 2.9 5.3 3.8 3.9 1.9 8 2.8 12.1 3.8s8.2 2 12.2 3.3c4 1.3 7.9 2.8 11.5 5 3.2 1.9 5.8 4.7 7.5 8 .9 1.6 1.5 3.4 1.9 5.2.2.9.4 1.8.4 2.7.1.5.1.9.1 1.4V200l-.3 19c-12.6-.2-25.1-.5-37.7-.7-12.7-.1-25.5-.1-38.2-.2z" fill="#a9561f" stroke-width="none" opacity="1" stroke="none"></path></g><g id="svga-group-clothes-single"><path id="SvgjsPath16941" d="M179.3 220.1c0-17.5-1.6-26.7-1.6-26.7-3.2-15.2-21.5-18.1-30.1-20.5-2.8-.8-8.2-1.4-8.2-1.4-4.8 5.3-9.9 9.8-15.9 15.4-7.5 7-14.9 13-21.8 18.1-6.4-4-13.8-9.3-21.4-16.1-7.7-6.9-13.1-12.8-17.9-18.8-3.1.5-7.1.9-10.7 1.7-8.7 1.9-26.5 7.6-29.5 21.6 0 0-1.6 9.2-1.6 26.7h158.7z" fill="#1e78a2" stroke-width="none" opacity="1" stroke="none"></path><path id="SvgjsPath16942" d="M179.6 210.9c0-3.1-.1-6.1-.3-9.2-.1-1.5-.2-3.1-.3-4.6l-.2-2.3-.1-1.2c0-.4-.2-.8-.3-1.2-.2-.8-.4-1.6-.7-2.3l-.9-2.2-1.2-2.1c-.4-.7-1-1.3-1.5-1.9-2.1-2.4-4.7-4.4-7.5-5.9s-5.7-2.6-8.7-3.6c-3-.9-6-1.7-8.9-2.5-2.9-.8-6.1-.8-9.1-1.7-.5-.1-1 0-1.4.4-5.8 6.3-11.5 11.3-17.8 17.1-6.1 5.6-12.4 11.1-19.1 16.1-3.6-2.2-7.2-4.6-10.6-7.1-3.6-2.6-7.1-5.4-10.5-8.4-3.4-3-6.6-6.1-9.7-9.3-3.1-3.3-5.2-5.8-8-9.3-.1-.1-.3-.2-.5-.2-3.2.6-6.9.8-10 1.5-3.1.6-6.2 1.4-9.2 2.4-6 2.1-11.9 4.9-16.5 9.7-2.3 2.4-4.1 5.2-5.1 8.4l-.4 1.2c-.1.2-.1.4-.2.6l.1.7-.3 2.4c-.2 1.6-.4 3.2-.5 4.7-.6 6.3-.8 12.6-.9 19 0 .8.6 1.4 1.4 1.4l40 .2c13.3 0 26.7-.1 39.9-.2l39.7-.5 19.7-.3 19.5-.4c.1-1.5.1-3.2.1-4.7v-4.7zM23 196.6c.1-.8.2-1.6.3-2.3l.1-.6c0-.2.1-.3.1-.5l.3-1.1c.8-2.8 2.4-5.5 4.4-7.7 1.5-1.6 3.2-3.1 5-4.4 1.1 1.1 2 2.4 2.8 3.7.9 1.5 1.7 3 2.4 4.6 1.4 3.2 2.4 6.5 3.2 9.9.4 1.7.8 3.4 1.1 5.1.3 1.7.6 3.4.9 5.2.5 3.3 1 6.6 1.5 10l-22.8.1c0-5.8.1-11.6.5-17.4-.1-1.4 0-3 .2-4.6zm116.1 22.7-39.7-.5c-13.2-.1-26.3-.2-39.4-.2l-15 .1c.3-3.4.2-6.8 0-10.2-.3-3.5-.8-7.1-1.6-10.6-.4-1.7-.9-3.5-1.5-5.2-.6-1.7-1.3-3.4-2.2-4.9-.8-1.6-1.8-3.1-3-4.5-1-1.2-2.1-2.4-3.4-3.2 3.2-2.2 6.8-3.9 10.4-5.2 2.9-1.1 5.9-1.9 9-2.6 3-.7 6.7-.9 9.6-1.5 2.8 3.4 4.9 5.8 7.9 9 3.1 3.3 6.3 6.4 9.7 9.5 6.7 6.1 13.8 11.6 21.4 16.6.3.2.7.2 1 0 7-5 13.8-10.3 20.2-16.1 3.2-2.9 6.4-5.8 9.4-8.9 2.9-2.8 5.3-4.8 8-7.8 2.7.8 5.7.7 8.4 1.4 3 .8 6 1.4 8.9 2.3 2.9.9 5.7 1.9 8.4 3.3.3.1.5.3.8.4-1.1.8-2.1 1.8-2.9 2.9-1.1 1.4-2.1 2.9-3 4.5-.9 1.6-1.6 3.2-2.2 4.9-.6 1.7-1.1 3.4-1.5 5.2-.8 3.5-1.3 7-1.6 10.6-.2 3.5-.3 7.1 0 10.6l1.5-10.5c.3-1.7.6-3.5.9-5.2.3-1.7.6-3.4 1.1-5.1.8-3.4 1.8-6.7 3.2-9.9.7-1.6 1.5-3.1 2.4-4.6.7-1.2 1.5-2.3 2.4-3.3 2.2 1.2 4.3 2.8 6.1 4.6.5.6 1 1.1 1.4 1.7l1.2 1.8.9 2c.3.7.4 1.4.7 2.1.1.4.2.7.3 1.1l.2 1.1.3 2.3.5 4.6c.3 3 .6 6.1.7 9.2l.5 9.1-40.4-.9zm-4.2-34.6c-3.4 3.3-6.9 6.5-10.4 9.5-7.1 6.1-14.3 11.9-21.9 17.3-4.3-2.5-8.5-5.3-12.5-8.3-4.1-3.1-8-6.3-11.8-9.7-3.8-3.4-7.5-6.9-11.1-10.6-3.6-3.6-7.1-7.4-10.4-11.3 3.2 4 6.5 7.9 10 11.6 3.5 3.7 7.2 7.4 10.9 10.8 3.8 3.5 7.8 6.7 11.8 9.9 4.1 3.1 8.4 6 12.8 8.6.2.1.4.1.5 0 3.8-2.8 7.6-5.6 11.3-8.6 3.7-3 7.3-6 10.8-9.2 3.5-3.1 6.9-6.4 10.3-9.8 3.3-3.4 6.5-6.9 9.5-10.4-3.1 3.5-6.3 6.9-9.8 10.2z" fill="#005a83" stroke-width="none" opacity="1" stroke="none"></path></g><g id="svga-group-head" transform="matrix(1,0,0,1,0,0)"><g id="svga-group-ears-left-move" transform="matrix(1,0,0,1,0,0)"><g id="svga-group-ears-left" transform="matrix(1,0,0,1,0,0)"><path id="SvgjsPath16951" d="M63 101.3s-1.7-4.6-3.4-7.5-4.3-6.9-5.9-7.9-2.7-.4-2.3 2.3 2.5 11.4 3 14c.6 2.6 1.9 8.4 3.4 12.2 1.5 3.8 2.5 5.5 4 .5s2.4-10.4 1.2-13.6z" fill="#d79468" stroke-width="none" opacity="1" stroke="none"></path><path id="SvgjsPath16952" d="M67.1 106c0 1.6-.8 7.1-2.2 10.6-1.3 1.2-4.7 2.2-4.8 2.1-.1 0-.2 0-.4-.1-.4-.2-.7-.6-.9-1s-.4-.7-.6-1.1c-.3-.7-.6-1.4-.9-2.2-.6-1.5-1-3-1.5-4.6-.9-3.1-1.5-6.2-2-9.4-.6-3.1-1.2-6.2-1.9-9.3l-.5-2.3c-.2-.8-.4-1.6-.3-2.5.1-.5.3-.9.6-1.1s.6-.3 1-.2c.6.1 6.8.8 7.3 1.3 3.4 1.3 7.2 8.5 7.1 19.8zm-8.2-12.6c-.8-1.2-1.6-2.3-2.4-3.5-.8-1.1-1.6-2.3-2.5-3.1-.4-.4-.9-.7-1.4-.8-.5-.1-.9.1-1 .6-.1.6 0 1.4.1 2.2.1.8.3 1.6.4 2.3.6 3.1 1.4 6.2 2.1 9.3.7 3.1 1.5 6.1 2.4 9.1.4 1.5.9 3 1.5 4.3.3.7.6 1.4.9 2 .2.3.3.6.5.9.2.2.3.4.4.5.1 0 .1 0 .3-.1.1-.1.1-.2.2-.3.1-.1.1-.2.2-.4.3-.6.5-1.2.7-1.9.4-1.4.9-2.7 1.2-4.2.4-1.4.7-2.9.8-4.4s.1-3.2-.4-4.6c-1-2.9-2.4-5.6-4-7.9z" fill="#c87d4d" stroke-width="none" opacity="1" stroke="none"></path><path id="SvgjsPath16953" d="M52.1 88.9c3.2 3.5 5.8 9.5 6.2 15.1 0 .4-.3.4-.4.1l-.3-1.5c-.3-.7-.8-.8-1.4-.2.1.4.1.9.2 1.3.1.6.3 1.1.5 1.7.5 1.3 1.2 2.3 1.8 3.5.1.2 0 .6-.2.5-1.5-1.3-3.1-4.8-3-7.3 0-.8.3-1.4.8-1.5.3 0 .6.1.8.4-1.1-4.4-2.7-8-5.2-11.6-.1-.4.1-.7.2-.5z" fill="#b86934" stroke-width="none" opacity="1" stroke="none"></path></g></g><g id="svga-group-ears-right-move" transform="matrix(1,0,0,1,0,0)"><g id="svga-group-ears-right" transform="matrix(1,0,0,1,0,0)"><path id="SvgjsPath16954" d="M137 101.3s1.7-4.6 3.4-7.5 4.3-6.9 5.9-7.9c1.6-1 2.7-.4 2.3 2.3-.5 2.7-2.5 11.4-3 14-.6 2.6-1.9 8.4-3.4 12.2-1.5 3.8-2.5 5.5-4 .5s-2.4-10.4-1.2-13.6z" fill="#d79468" stroke-width="none" opacity="1" stroke="none"></path><path id="SvgjsPath16955" d="M140.1 86.2c.5-.5 6.7-1.2 7.3-1.3.3 0 .7 0 1 .2s.5.7.6 1.1c.1.9-.1 1.8-.3 2.5l-.5 2.3c-.7 3.1-1.3 6.2-1.9 9.3-.6 3.1-1.2 6.3-2 9.4-.4 1.5-.9 3.1-1.5 4.6-.3.7-.6 1.4-.9 2.2-.2.4-.4.7-.6 1.1-.2.3-.5.7-.9 1-.1 0-.2.1-.4.1-.1 0-3.5-1-4.8-2.1-1.4-3.5-2.2-9-2.2-10.6-.2-11.3 3.6-18.5 7.1-19.8zm-3.1 15.1c-.5 1.5-.6 3.1-.4 4.6.1 1.5.4 3 .8 4.4l1.2 4.2c.2.7.4 1.3.7 1.9.1.2.1.3.2.4.1.1.1.2.2.3.1.1.2.2.3.1s.3-.2.4-.5c.2-.3.3-.6.5-.9.3-.6.6-1.4.9-2 .6-1.4 1-2.8 1.5-4.3.9-3 1.6-6 2.4-9.1.8-3.1 1.5-6.2 2.1-9.3.2-.8.3-1.6.4-2.3.1-.8.2-1.6.1-2.2-.1-.6-.5-.8-1-.6-.5.1-1 .4-1.4.8-.9.8-1.7 2-2.5 3.1s-1.6 2.3-2.4 3.5c-1.5 2.3-2.9 5-4 7.9z" fill="#c87d4d" stroke-width="none" opacity="1" stroke="none"></path><path id="SvgjsPath16956" d="M147.9 88.9c-3.2 3.5-5.8 9.5-6.2 15.1 0 .4.3.4.4.1l.3-1.5c.3-.7.8-.8 1.4-.2-.1.4-.1.9-.2 1.3-.1.6-.3 1.1-.5 1.7-.5 1.3-1.2 2.3-1.8 3.5-.1.2 0 .6.2.5 1.5-1.3 3.1-4.8 3-7.3 0-.8-.3-1.4-.8-1.5-.3 0-.6.1-.8.4 1.1-4.4 2.7-8 5.2-11.6.1-.4-.1-.7-.2-.5z" fill="#b86934" stroke-width="none" opacity="1" stroke="none"></path></g></g><g id="svga-group-faceshape-wrap" transform="matrix(1,0,0,1,0,0)"><g id="svga-group-faceshape-single"><path id="SvgjsPath17027" d="M142.7 105.7c-.5-4.6-.6-5.7-.1-12.3.4-4.9.6-10.1.6-11.5v-.3c-1.3-29.9-20.7-46.4-43.2-46.4S58.1 51.8 56.9 81.7v.3c0 1.4.2 6.6.6 11.5.5 6.5.4 7.6-.1 12.3-.5 5.2-2.3 15.5-1.6 19.9.9 5.6 2.9 9.5 14.3 16 14.7 8.4 18.4 16 30 16 11.5 0 15.3-7.6 30-16 11.3-6.5 13.4-10.4 14.3-16 .6-4.5-1.2-14.8-1.7-20z" fill="#d79468" stroke-width="none" opacity="1"></path><path id="SvgjsPath17028" d="M142.6 93.4c.4-4.9.6-11.8.6-11.8-1.3-29.9-20.7-46.4-43.2-46.4S58.1 51.8 56.9 81.7v.3c0 1.4.2 6.6.6 11.5.5 6.5.4 7.6-.1 12.3-.5 5.2-2.3 15.5-1.6 19.9.9 5.6 2.9 9.5 14.3 16 14.7 8.4 18.4 16 30 16 11.5 0 15.3-7.6 30-16 11.3-6.5 13.4-10.4 14.3-16 .6-4.5-1.2-14.8-1.7-20-.5-4.6-.6-5.7-.1-12.3zm1 26.7c.2 1.8.3 2.6.2 4.4 0 .9-.2 1.7-.5 2.5-.2.8-.6 1.6-1 2.4-.8 1.5-2 2.8-3.3 3.9-2.6 2.3-4.8 4.1-7.9 5.8l-4.9 2.6c-1.6.9-3.2 1.9-4.8 2.8-1.6 1-3.1 2-4.7 3-1.5 1-3 2-4.5 2.9-3 1.8-6 3.1-9.2 3.4-1.6.2-3.3.2-5 .1-1.6-.2-3.2-.5-4.7-1-1.5-.6-3-1.3-4.5-2.1-1.5-.9-2.9-1.9-4.4-2.9-3-2.1-6-4.3-9.3-6.2-.8-.5-1.6-1-2.4-1.4l-2.4-1.4c-1.6-.9-3.1-1.8-4.6-2.8-2.9-1.9-4.7-4.1-6.3-6.6-.8-1.3-1.3-2.7-1.5-4.3 0 0-.1-.9-.1-1.1v-1.2c0-.8.1-1.7.2-2.6.3-3.5.8-11.4 1-13.3s.3-2.7.3-4.6c.1-3.8-.5-7.5-.7-11.2l-.4-5.4-.1-2.8c0-.4-.1-.9-.1-1.3l.1-1.3c.1-3.6.5-7.2 1.3-10.7 1.6-7 4.6-13.8 9.3-19.3 1.2-1.3 2.4-2.7 3.8-3.8l1-.9c.3-.3.7-.6 1-.8l2.2-1.5c3-1.9 6.2-3.5 9.7-4.4 1.7-.6 3.4-.9 5.2-1.2.9-.2 1.8-.2 2.6-.3.9-.1 1.7-.2 2.6-.2h2.6c.9 0 1.8.1 2.6.2 1.8.1 3.5.5 5.2.7 3.4.7 6.8 1.7 9.9 3.3 1.6.7 3 1.7 4.5 2.5l2.1 1.5 1.1.8c.4.3.7.6 1 .8l1.9 1.7c.6.6 1.2 1.3 1.8 1.9 1.3 1.2 2.2 2.7 3.3 4 .5.7.9 1.5 1.4 2.2.4.8 1 1.5 1.4 2.3l1.2 2.4c.2.4 1.1 2.4 1.1 2.4l1 2.5c.3.8 2.2 7.7 2.2 7.7.2.9 1 3.4 1.1 8.1V85c0 1.8-.1 3.7-.1 5.5s-.1 3.7-.2 5.5c-.1 1.8-.2 3.7-.1 5.5.1 1.8.6 8.5 1.8 18.6z" fill="#a9561f" stroke-width="none" opacity="1"></path></g></g><g id="svga-group-mouth-single-move" transform="matrix(1,0,0,1,0,0)"><g id="svga-group-mouth-single" transform="matrix(1,0,0,1,0,0)"><path id="SvgjsPath17107" d="M112.26 126.62s-1.87-1.3-2.79-2.29-2.13-3.1-4-3.14-2.58 1.45-4.68 1.79c-2.1.34-3.54-1.18-4.69-1.56s-2.91.11-3.79 1.37-2.1 3.63-3.82 4.4c0 0-.15.53 1.53.38s3.82-1.15 4.74-1.38c.92-.23 3.4 1.41 4.39 1.8.99.38 1.45.19 2.45-.31.99-.5 2.48-1.49 3.4-1.38s2.79 1.38 3.78 1.41c1 .06 2.87-.44 3.48-1.09z" fill="#9d6d5f" stroke-width="none" opacity="1" transform="translate(0 2)"></path><path id="SvgjsPath17108" d="M95.4 134.37s3.15-.94 5.22-.9c2.07.04 4.17.94 5.33 1.13 0 0-3.3 1.24-4.66 1.58-1.34.34-5.89-1.81-5.89-1.81z" fill="#cf885a" stroke-width="none" opacity="1" transform="translate(0 2)"></path><path id="SvgjsPath17109" d="M89.79 131.53s1.89 3.1 3.51 2.97c1.63-.13 4.03-.93 5.63-1.19 1.6-.26 3.59.13 4.75.39s2.66.98 3.67 1.11c1.01.13 3.59-2.66 3.59-2.66s-2.48 2.07-3.49 2.2c-1.01.13-3.2-1.21-5.81-1.42-2.61-.21-4.8.44-5.84.75-1.03.31-2.61.8-3.49.31s-2.52-2.46-2.52-2.46z" fill="#e6ac86" stroke-width="none" opacity="1" transform="translate(0 2)"></path><path id="SvgjsPath17110" d="M114.48 126.2c-.07-.03-.15-.06-.23-.09-.05-.03-.21-.13-.22-.13-.18-.07-.38-.09-.56-.17-.39-.18-.57-.54-.82-.86-.28-.36-.81-.03-.83.34-.02.35.13.67.35.95-1.2.81-2.58 1.23-4.03.87-1.03-.25-1.85-1.02-2.88-1.23-2.34-.47-3.5 2.36-5.95 1.54-1.74-.58-2.66-2.05-4.67-1.66-1.02.2-1.91.85-2.9 1.13-1.38.4-2.72.33-4-.16.16-.16.28-.36.36-.59.07-.21-.05-.4-.21-.52a.536.536 0 0 0-.11-.05c-.22-.05-.39.04-.52.21-.24.32-.62.57-1.01.64-.37.06-.32.61 0 .7.29.08.59.08.86 0 1.3 1.06 3.28 1.04 4.87.6 2.02-.56 3.15-1.59 5.27-.4 1.01.56 1.89 1.43 3.11 1.42 1.09-.01 1.84-.74 2.74-1.25 1.89-1.07 3.05.25 4.78.68 1.73.44 3.66-.12 4.82-1.43.04.03.07.06.11.08.57.35 1.23.42 1.74-.04.16-.15.14-.48-.07-.58z" fill="#8e5748" stroke-width="none" opacity="1" transform="translate(0 2)"></path></g></g><g id="svga-group-eyes-left-move" transform="matrix(1,0,0,1,0,0)"><g id="svga-group-eyes-left" transform="matrix(1,0,0,1,0,0)"><g id="svga-group-eyesback-left"><path id="SvgjsPath16983" d="M89.5 95.7s-3.1-2.4-5.2-3.2c-2.1-.8-5.6-2.1-9.6-1.8s-4.7.6-4.7.6 1.2 1.9 2.8 3c1.6 1.1 3.8 2.7 7.1 3.1 3.1.5 7.2-.1 9.6-1.7z" fill="#ffffff" stroke-width="none" opacity="1"></path></g><g id="svga-group-eyesiriswrapper-left" transform="matrix(1,0,0,1,0,0)"><g id="svga-group-eyesiriscontrol-left" transform="matrix(1,0,0,1,0,0)"><g id="svga-group-eyesiris-left" transform="matrix(1,0,0,1,0,0)"><path id="SvgjsPath17041" d="M80.1 88.4c2.8 0 5.2 2.3 5.2 5.2s-2.3 5.2-5.2 5.2-5.2-2.3-5.2-5.2 2.3-5.2 5.2-5.2z" fill="#3e4442" stroke-width="none" opacity="1"></path><path id="SvgjsPath17042" d="M80.1 90.8c1.5 0 2.8 1.2 2.8 2.8s-1.2 2.8-2.8 2.8-2.8-1.2-2.8-2.8 1.2-2.8 2.8-2.8z" fill="#000000" stroke-width="none" opacity="1"></path><path id="SvgjsPath17043" d="m79.4 91.3-.6-.6c-.2-.2-.4-.3-.7-.3-.2 0-.5.1-.7.3-.2.2-.3.4-.3.7s.1.5.3.7l.6.6c.2.2.4.3.7.3.2 0 .5-.1.7-.3.3-.5.4-1.1 0-1.4zm2.5 4.7c.9 0 .9-1.4 0-1.4s-.8 1.4 0 1.4z" fill="#ffffff" stroke-width="none" opacity="1"></path></g></g></g><g id="svga-group-eyesfront-left"><path id="SvgjsPath16991" d="M69.4 94.6c0 6.4 4.7 11.5 10.6 11.5s10.6-5.2 10.6-11.5S85.9 83.1 80 83.1s-10.6 5.1-10.6 11.5zm.5-3.2s.6-.3 4.7-.6 7.5 1 9.6 1.8 5.2 3.2 5.2 3.2c-2.4 1.6-6.5 2.2-9.7 1.8s-5.5-1.9-7.1-3.1-2.7-3.1-2.7-3.1z" fill="#d79468" stroke-width="none" opacity="1" stroke="none"></path><path id="SvgjsPath16992" d="M89.9 95.9c-2.1-3.8-4.8-8.7-9.8-8.8-4.3-.1-7.4 3.4-11 5.1-.4.2-.7-.3-.3-.6 3.5-2.4 7.6-5.7 12.2-4.9 4.7.8 7.2 5.2 9.2 9.1.1.1-.2.3-.3.1z" fill="#c87d4d" stroke-width="none" opacity="1" stroke="none"></path><path id="SvgjsPath16993" d="M69.1 91.8c.2 0 .3 0 .5-.1C74 97.8 83 100.1 89.5 96c0 0 .1 0 .1.1.2.2.6-.1.3-.3.2-.1 0-.4-.2-.3 0 0-.1 0-.1.1C84.4 91 75.5 88 69 91.7l.1.1zm1.3-.1c3.1-.3 6-.7 9.1-.1 3.5.6 6.8 2 9.6 4.2-6.8 2.9-13.7 1.7-18.7-4.1z" fill="#2a150e" stroke-width="none" opacity="1" stroke="none"></path></g></g></g><g id="svga-group-eyes-right-move" transform="matrix(1,0,0,1,0,0)"><g id="svga-group-eyes-right" transform="matrix(1,0,0,1,0,0)"><g id="svga-group-eyesback-right"><path id="SvgjsPath16984" d="M110.5 95.7s3.1-2.4 5.2-3.2c2.1-.8 5.6-2.1 9.6-1.8 4.1.3 4.7.6 4.7.6s-1.2 1.9-2.8 3c-1.6 1.1-3.8 2.7-7.1 3.1-3.1.5-7.2-.1-9.6-1.7z" fill="#ffffff" stroke-width="none" opacity="1"></path></g><g id="svga-group-eyesiriswrapper-right" transform="matrix(1,0,0,1,0,0)"><g id="svga-group-eyesiriscontrol-right" transform="matrix(1,0,0,1,0,0)"><g id="svga-group-eyesiris-right" transform="matrix(1,0,0,1,0,0)"><path id="SvgjsPath17044" d="M119.9 88.4c2.8 0 5.2 2.3 5.2 5.2s-2.3 5.2-5.2 5.2-5.2-2.3-5.2-5.2 2.4-5.2 5.2-5.2z" fill="#3e4442" stroke-width="none" opacity="1"></path><path id="SvgjsPath17045" d="M119.9 90.8c1.5 0 2.8 1.2 2.8 2.8s-1.2 2.8-2.8 2.8-2.8-1.2-2.8-2.8 1.3-2.8 2.8-2.8z" fill="#000000" stroke-width="none" opacity="1"></path><path id="SvgjsPath17046" d="m119.3 91.3-.6-.6c-.2-.2-.4-.3-.7-.3-.2 0-.5.1-.7.3-.2.2-.3.4-.3.7s.1.5.3.7l.6.6c.2.2.4.3.7.3.2 0 .5-.1.7-.3.3-.5.4-1.1 0-1.4zm2.5 4.7c.9 0 .9-1.4 0-1.4s-.9 1.4 0 1.4z" fill="#ffffff" stroke-width="none" opacity="1"></path></g></g></g><g id="svga-group-eyesfront-right"><path id="SvgjsPath16994" d="M120 83.1c-5.9 0-10.6 5.2-10.6 11.5s4.7 11.5 10.6 11.5 10.6-5.2 10.6-11.5-4.8-11.5-10.6-11.5zm7.3 11.3c-1.6 1.1-3.8 2.7-7.1 3.1s-7.3-.2-9.7-1.8c0 0 3.1-2.4 5.2-3.2s5.6-2.1 9.6-1.8 4.7.6 4.7.6-1.1 2-2.7 3.1z" fill="#d79468" stroke-width="none" opacity="1" stroke="none"></path><path id="SvgjsPath16997" d="M110.1 95.9c2.1-3.8 4.8-8.7 9.8-8.8 4.3-.1 7.4 3.4 11 5.1.4.2.7-.3.3-.6-3.5-2.4-7.6-5.7-12.2-4.9-4.7.8-7.2 5.2-9.2 9.1-.1.1.2.3.3.1z" fill="#c87d4d" stroke-width="none" opacity="1" stroke="none"></path><path id="SvgjsPath16998" d="M130.9 91.6c-6.5-3.7-15.4-.7-20.6 3.9 0 0-.1 0-.1-.1-.2-.1-.4.2-.2.3-.2.2.1.5.3.3 0 0 .1 0 .1-.1 6.4 4.1 15.5 1.8 19.9-4.3.2 0 .3 0 .5.1.1.1.2 0 .1-.1zm-20.1 4.1c2.8-2.2 6.1-3.6 9.6-4.2 3.1-.6 6-.2 9.1.1-4.9 5.9-11.8 7.1-18.7 4.1z" fill="#2a150e" stroke-width="none" opacity="1" stroke="none"></path></g></g></g><g id="svga-group-facehighlight-single"></g><g id="svga-group-eyebrows-left-move" transform="matrix(1,0,0,1,0,0)"><g id="svga-group-eyebrows-left-rotate" transform="matrix(1,0,0,1,0,0)"><g id="svga-group-eyebrows-left" transform="matrix(1,0,0,1,0,0)"><path id="SvgjsPath16915" d="M67.9 82.7c.4-.7.8-1.3 1.2-1.9.1-.3.2-.5.4-.8.3-.6.6-1.2 1.1-1.6.3-.6.9-1.2 1.3-1.7.6-.7 1.7-1.5 2.6-.9 0 0 .1 0 .1.1 1.2-.4 2.7-.5 3.9-.3 1.6.2 3.1.7 4.6 1.2 1.2.4 2.4.8 3.5 1.4.1-.1.3-.2.4-.1 1.1.1 2.3.4 3.1 1.3.1.1.1.1.1.2.3.1.6.2.8.4h.1c.3.1.7.3.9.6.8.3 1.4 1.3 1.7 2.1.4 1.1-.1 2.7-1.2 3.3 0 .1-.1.3-.2.4-.6.6-1.7.4-2.7 0h-.1c-3.3-1.1-6.5-2.6-9.6-4.3-1.4-.4-2.7-.9-4-1.3-.5-.2-1.3-.3-1.8-.6 0 .1-.1.2-.2.3-.7.3-1.4.6-2 .9-.4.2-.9.5-1.3.6-.1.2-.3.4-.4.6-.4.5-.9 1.4-1.6 1.6-.2.4-.4.8-.8.8-.2 0-.3 0-.4-.2-.3-.9.3-1.6.5-2.1z" fill="#decfbc" stroke-width="none" opacity="1"></path><path id="SvgjsPath16916" d="M89.8 86.1c.2-1.1.6-2.1.5-3.2-.1-1.2-.5-2.2-1-3.3-.1-.2.2-.5.4-.3 1.6 1.7 1.9 5.1.4 7-.1.1-.3 0-.3-.2zm1.5 0c.4-.7.8-1.5.9-2.3.1-.8-.1-1.5-.1-2.3 0-.2.2-.2.3-.1 1.1 1.4.4 3.8-.7 5-.2.2-.6-.1-.4-.3zM82 76.4c3 1.7 5.3 5.6 5.7 9 0 .2-.3.2-.4.1-.6-1.7-1.2-3.3-2.1-4.8-1-1.5-2.2-2.6-3.4-3.9-.4-.2-.1-.5.2-.4zm-4.6-.7c2.7 1.6 6.1 3.5 6.2 7 0 .3-.3.3-.4.1-.6-1.6-1.3-2.8-2.5-3.9-1.1-1-2.4-1.8-3.5-2.8-.2-.2 0-.5.2-.4zm-5.7 1.8c4.2-1.6 8 2.1 10.3 5.1.1.2-.2.4-.3.2-1.3-1.3-2.6-2.8-4.2-3.7-1.9-1.1-3.7-1-5.7-1.2-.3.1-.4-.3-.1-.4zm-4 4.7c1.2-1.3 2.8-1.9 4.5-2.3.2-.1.3.3.1.4-1.6.5-2.9 1.4-4.4 2.2-.2.1-.4-.2-.2-.3z" fill="#ede8e1" stroke-width="none" opacity="1"></path><path id="SvgjsPath16917" d="M66.4 86c0 .2.3.4.4.2 0 0 .1 0 .1-.1 2.6-2.8 5.2-6.1 9.5-4.9 3.1.9 5.9 2.9 8.9 4.1 2.1.8 5.9 2.9 7.9.9 2-1.9.7-4.9-.6-6.8-.2-.3-.7 0-.5.3-.8-.8-1.7-1.5-2.6-1.7-.2-.1-.3.2-.3.3-.3-.2-.6-.3-.9-.4-.9-.5-1.9-1.1-3-1.4-.2-.1-.5.3-.3.5-2.4-1.1-5.2-2-7.9-2.3H76.8c-1.9-.2-3.7 0-5.3.7-.4.2-.3.6-.1.7-.2.1-.4.2-.6.4-.6.4-1.4 1-1.6 1.8 0 .1 0 .2.1.3-.5.6-.9 1.3-1.3 2.1-.5 1.4-1.7 3.6-1.6 5.3zm11.7-10.1c1.1.8 2.3 1.6 3.2 2.7 1.3 1.5 2 3.2 2.6 5-.1-.1-.2-.1-.4-.2-.8-2.1-2.2-3.9-4-5.3-1-.8-2.4-1.7-3.8-2.3.9 0 1.6 0 2.4.1zm13.1 10.2c.7-.8 1-2.1 1-3.1 0-1.2-.4-2.2-1.1-3.1.1 0 .2.1.3.1.6.6 1.2 1.2 1.7 1.8.5 1.3.6 2.7-.5 3.7-.3.4-.8.6-1.4.6zm-6.5-2.2c-.4-2-1.3-3.9-2.6-5.4-.6-.7-1.3-1.6-2.2-2.3 2.5.6 4.8 1.6 7.3 2.4.2.1.3-.1.3-.2.2.1.5.2.8.3.6.3 1.2.6 1.8.8.9 1.1 1.5 2.4 1.3 3.9-.1 1-.6 1.8-1 2.6-.1 0-.2 0-.3-.1.3-1.2.1-2.8-.5-3.8-.1-.2-.5-.1-.4.1l.3 2.1v1.4c-.8-.2-1.6-.6-2.2-.8-1-.2-1.8-.6-2.6-1zm-12.9-3.3c-1.5.7-2.8 1.8-3.8 3.1.2-.7.4-1.3.7-2 .8-1.8 1.8-3.2 3.1-4.6.1-.1.1-.2 0-.2.6-.3 1.2-.6 1.7-.9h.2c.9.4 1.8.6 2.7 1 1 .5 1.9 1.1 2.8 1.8 1.4 1.2 2.5 2.6 3.4 4.2-1.4-.7-2.8-1.4-4.2-2-1-.4-2.1-.8-3.2-.9-1.4-.9-3.2-1.3-4.7-.5-.2.1-.1.4.1.4.9-.1 1.8-.1 2.7.1-.5.1-1 .2-1.5.5z" fill="#cfb89a" stroke-width="none" opacity="1"></path></g></g></g><g id="svga-group-eyebrows-right-move" transform="matrix(1,0,0,1,0,0)"><g id="svga-group-eyebrows-right-rotate" transform="matrix(1,0,0,1,0,0)"><g id="svga-group-eyebrows-right" transform="matrix(1,0,0,1,0,0)"><path id="SvgjsPath16918" d="M132 82.8c-.4-.7-.8-1.3-1.1-2-.1-.3-.2-.5-.4-.8-.3-.6-.6-1.2-1.1-1.6-.3-.6-.9-1.2-1.3-1.7-.6-.7-1.7-1.6-2.6-1 0 0-.1 0-.1.1-1.2-.4-2.7-.5-3.9-.4-1.6.2-3.1.7-4.7 1.2-1.2.4-2.4.7-3.5 1.3-.1-.1-.3-.2-.4-.1-1.1.1-2.3.4-3.1 1.3-.1.1-.1.1-.1.2-.3.1-.6.2-.8.4h-.1c-.3.1-.7.3-.9.6-.8.3-1.4 1.3-1.7 2.1-.4 1.1.1 2.7 1.1 3.3 0 .1.1.3.2.4.6.6 1.7.4 2.7 0h.1c3.3-1.1 6.6-2.5 9.6-4.2 1.4-.4 2.7-.9 4-1.3.5-.2 1.3-.3 1.9-.6 0 .1.1.2.2.3.7.3 1.4.6 2 .9.4.2.9.5 1.3.6.1.2.3.4.4.6.4.5.9 1.4 1.6 1.6.2.4.4.8.8.8.1 0 .3 0 .4-.1.4-.6-.2-1.4-.5-1.9z" fill="#decfbc" stroke-width="none" opacity="1"></path><path id="SvgjsPath16919" d="M110.1 86.1c-.2-1.1-.5-2.1-.5-3.2.1-1.2.5-2.2 1-3.3.1-.2-.2-.6-.4-.3-1.7 1.7-2 5.1-.4 7 .1 0 .4-.1.3-.2zm-1.4-.1c-.4-.7-.8-1.5-.9-2.3-.1-.8.1-1.5.1-2.3 0-.2-.2-.2-.3-.1-1.1 1.4-.4 3.8.7 5 .2.1.5-.1.4-.3zm9.4-9.6c-3 1.7-5.4 5.5-5.7 8.9 0 .2.3.3.4.1.6-1.6 1.2-3.3 2.2-4.7 1-1.5 2.2-2.6 3.5-3.8.1-.3-.1-.7-.4-.5zm4.5-.7c-2.7 1.6-6.1 3.5-6.3 6.9 0 .3.3.3.4.1.6-1.6 1.3-2.8 2.6-3.9 1.1-1 2.4-1.8 3.6-2.7.2-.2-.1-.5-.3-.4zm5.8 1.9c-4.2-1.6-8 2.1-10.4 5-.1.2.2.4.3.2 1.3-1.3 2.6-2.7 4.3-3.7 1.9-1.1 3.7-1 5.7-1.1.3.1.3-.3.1-.4zm3.9 4.7c-1.1-1.3-2.8-2-4.5-2.3-.2-.1-.3.3-.1.4 1.6.5 2.9 1.4 4.3 2.2.3.1.4-.2.3-.3z" fill="#ede8e1" stroke-width="none" opacity="1"></path><path id="SvgjsPath16920" d="M131.8 80.8c-.4-.7-.8-1.4-1.3-2.1.1-.1.1-.2.1-.3-.1-.8-1-1.4-1.6-1.8-.2-.1-.4-.3-.6-.4.3-.2.3-.6-.1-.7-1.6-.7-3.4-.9-5.2-.7H122.8c-2.7.2-5.5 1.2-7.9 2.2.2-.2-.1-.5-.3-.5-1 .2-2 .9-3 1.3-.3.1-.6.3-.9.4.1-.2-.1-.4-.3-.3-.9.2-1.9.9-2.6 1.7.2-.4-.3-.7-.5-.3-1.3 1.9-2.6 4.8-.7 6.8 2 2 5.8 0 7.9-.8 3-1.2 5.8-3.2 9-4.1 4.3-1.2 6.9 2.1 9.5 5l.1.1c.2.2.4 0 .4-.2.1-1.7-1-3.9-1.7-5.3zm-7.6-5c-1.4.5-2.8 1.4-3.8 2.2-1.8 1.4-3.2 3.2-4 5.3-.1.1-.2.1-.4.2.6-1.8 1.4-3.5 2.7-5 .9-1.1 2.1-1.8 3.3-2.7h2.2zm-16.9 9.6c-1.1-1-.9-2.4-.4-3.7.6-.6 1.1-1.2 1.7-1.8.1 0 .2-.1.3-.1-.7.9-1.1 1.9-1.1 3.1 0 1 .2 2.2.9 3.1-.5 0-1-.2-1.4-.6zm5.5-.5c-.6.2-1.4.6-2.2.8 0-.4-.1-.9 0-1.4.1-.7.3-1.4.3-2.1 0-.2-.3-.3-.4-.1-.7.9-.8 2.5-.6 3.8-.1 0-.2 0-.4.1-.4-.9-.9-1.6-1-2.7-.1-1.4.4-2.8 1.4-3.8.6-.3 1.2-.6 1.8-.8.2-.1.5-.2.8-.3 0 .1.1.3.3.2 2.5-.7 4.8-1.7 7.3-2.3-.8.7-1.6 1.5-2.2 2.3-1.3 1.6-2.2 3.4-2.6 5.4-.8.3-1.6.6-2.5.9zm13.9-4.7c.8-.2 1.7-.2 2.7-.1.2 0 .3-.3.1-.4-1.5-.8-3.3-.4-4.7.5-1.1.1-2.2.4-3.2.9-1.4.6-2.8 1.3-4.2 2 .9-1.6 2-3 3.5-4.2.9-.7 1.8-1.3 2.8-1.8.9-.4 1.8-.6 2.7-1h.2c.6.3 1.2.6 1.7.9 0 .1-.1.2 0 .2 1.3 1.4 2.4 2.8 3.1 4.6.2.6.4 1.3.6 2-1-1.3-2.2-2.5-3.8-3.2-.5-.2-1-.4-1.5-.4z" fill="#cfb89a" stroke-width="none" opacity="1"></path></g></g></g><g id="svga-group-beardwrap" transform="matrix(1,0,0,1,0,0)"><g id="svga-group-beard-single-move" transform="matrix(1,0,0,1,0,0)"><g id="svga-group-beard-single" transform="matrix(1,0,0,1,0,0)"></g></g></g><g id="svga-group-mustache-single-move" transform="matrix(1,0,0,1,0,0)"><g id="svga-group-mustache-single" transform="matrix(1,0,0,1,0,0)"></g></g><g id="svga-group-nose-single-move" transform="matrix(1,0,0,1,0,0)"><g id="svga-group-nose-single" transform="matrix(1,0,0,1,0,0)"><path id="SvgjsPath17081" d="M104.66 106.24s.9-.28 1.41.67c.51.95 1.27 3.18 1.65 4.2.38 1.02.76 2.48.45 3.05s-2.16 1.72-4.13 1.46c0 0-.76 2.23-1.27 3.05-.51.83-1.91 1.91-3.43 1.21-1.53-.7-1.72-2.42-2.23-3.24-.51-.83-1.14-1.14-1.14-1.14s-2.35.19-2.93 0c-.57-.19-1.34-1.46-1.02-3.24.32-1.78 1.14-4.64 1.59-5.15s.97-1.18 1.95-.66c0 0 .98-14.67 1.29-15.94.32-1.27 3.24-2.35 5.98-.45l1.83 16.18z" fill="#d79468" stroke-width="none" opacity="1" transform="translate(0 1)"></path><path id="SvgjsPath17082" d="M106.52 113.45c.17-.17 0-.55-.26-.44-.91.38-1.57.93-2.17 1.72-.81 1.06-1.05 3.04-1.94 3.92-3.05 3-4.02-1.38-5.1-2.76-.8-1.03-1.76-1.69-2.94-2.21-.22-.1-.4.19-.19.32.54.34 1.04.72 1.5 1.14-.28-.1-.53-.14-.9-.14-.26 0-.65.15-.9.08-.69-.21-1.08-1.19-1.16-1.87-.11-.98.99-7.38 2.75-6.44 0 .26 0 .53.01.79.01.29.47.38.53.07.73-3.57.64-7.48.88-11.12.26-3.94.67-7.92.8-11.86.01-.19-.27-.18-.29 0-.47 3.79-.67 7.65-1.03 11.46-.31 3.24-.88 6.66-.91 9.95-1.7-1.5-3.12 4.31-3.25 5.06-.21 1.15-.76 3.01-.03 4.09.83 1.24 2.38.4 3.55.78.24.08.43-.11.46-.32.2.22.4.46.57.71.64.91.91 1.98 1.51 2.9.59.89 1.44 1.61 2.58 1.5 1.13-.11 1.98-1.01 2.49-1.94.46-.82.66-1.76 1.08-2.6.6-1.16 1.48-1.91 2.36-2.79z" fill="#a9561f" stroke-width="none" opacity="1" transform="translate(0 1)"></path><path id="SvgjsPath17083" d="M107.63 110.22c-.28-.7-1.23-4.75-2.63-4.19-.24-3.09-.81-6.21-1.15-9.26-.41-3.59-.76-7.2-1.3-10.77-.02-.14-.26-.11-.25.03.25 3.85.71 7.7 1.1 11.53.36 3.57.43 7.3 1.15 10.82.07.32.57.25.57-.08-.01-.59-.04-1.19-.08-1.79.88-.12 1.95 3.85 2.07 4.2.21.6.53 1.23.66 1.85.39 1.92-.67 2.25-2.14 2.82-.35.13-.21.62.15.56 1.02-.17 2.19-.56 2.68-1.56.64-1.32-.35-2.95-.83-4.16z" fill="#a9561f" stroke-width="none" opacity="1" transform="translate(0 1)"></path><path id="SvgjsPath17084" d="M102.6 109.76c-.39-.4-1.12-.32-1.39.18-.42.77-.18 1.67-.31 2.51-.12.79-.38 1.58-.36 2.38.01.22.23.42.45.34.96-.32 1.58-1.25 1.87-2.19.31-1.01.53-2.4-.26-3.22z" fill="#dfa077" stroke-width="none" opacity="1" transform="translate(0 1)"></path><path id="SvgjsPath17085" d="M101.39 96.01c-.21-2.89-.25-5.79-.61-8.67-.02-.14-.2-.14-.21 0-.62 5.58-.23 11.88.96 17.39.07.31.56.24.55-.07-.11-2.89-.48-5.77-.69-8.65z" fill="#dfa077" stroke-width="none" opacity="1" transform="translate(0 1)"></path></g></g><g id="svga-group-hair-front" transform="matrix(1,0,0,1,0,0)"><path id="SvgjsPath17213" d="M99.9 58.5s-7.8-3.9-12.3-4.1C79.9 54.1 77.4 84 77.4 84s-3.8-13.2-.7-26.6c0 0-4.5 7.2-5.2 24.5 0 0-5.8-11.7-.2-27.5 0 0-6 8.3-7.3 37.7 0 0-1.5-6.9-1.5-9.9 0 0-2.3 16.2-1.3 24.5 0 0-2.5-4.5-3.6-10.6s-.8-9.3-.8-9.3-1 2.5-1.5 6.6c0 0-3.3-8.1-.7-20.7 0 0-3.5 8.6-4.3 14.4 0 0-1.3-5.6 1-16.1s7.2-18.3 7.2-18.3-3.1 3.6-7.3 10.9c0 0 1.1-13.5 15-24.9S86.8 31 86.8 31s-1.7-1.8-10.6-.2c0 0 5.8-3.1 14.6-3 8.8.2 10.9 5.1 10.9 5.1s3.8-4.3 12.4-5.8c0 0-2.5 2.1-3.3 3 0 0 4.3-1 11.9.3 0 0-3.6.3-4.6.8 0 0 7.1-.2 15.7 6.3s13.1 17 14.4 23.7c0 0-4.1-8.4-7.9-11.6 0 0 6.6 9.9 8.8 22.2l-2.3-3s2 8.3 1 17.5l-1.8-3.8s-.2 8.6-3.6 14.4l-.3-3.5s-.8 8.1-2.1 11.1c0 0 .2-17.4-1.7-24.7 0 0-.2 3.5-.5 6.1 0 0-1.7-12.9-4-16.1 0 0 .5 1.8-1.2 7.9 0 0-1.2-11.3-5.1-19.9 0 0 .3 12.4-.8 18.7 0 0-2.5-19.5-6.6-22.7 0 0 3 14.6-.2 24.7 0 0-1.4-23.6-7.3-24.6-6.1-.6-9 2.3-12.7 4.6z" fill="#decfbc" stroke-width="none" opacity="1"></path><path id="SvgjsPath17214" d="M77.7 83.4c-.1-5.9.4-11.7 2.1-17.4.7-2.5 1.5-5.6 2.9-7.9 3.2-5.1 7.6-4.4 12-2.7.3.1.4-.3.2-.5-5.6-2.9-10.2-2.5-13.1 3.5-3.6 7.6-5 16.6-4.6 24.9.1.4.5.4.5.1zM81 50.9c-6.3 5.7-5.9 15.3-5 23 0 .3.5.3.5 0-.2-8.3-.4-15.8 4.8-22.8.2-.2-.1-.4-.3-.2zm4.3-5C72.4 43.8 69 58.7 70.1 68.3c0 .2.2.2.2 0-.7-9.8 2.5-23.1 14.9-22 .2 0 .3-.3.1-.4zm15.2 11.6c6.7-3.8 13.7-6.3 16.8 3.5 1.8 5.7 2 11.5 2.2 17.4 0 .3.6.4.6.1 1-6.8.6-18.5-4.7-23.6-4.6-4.6-11.2-1-15.3 2.3-.2.1.2.5.4.3zm18.9-4c4.5 8.2 6.3 15.5 7 24.8 0 .4.5.4.6 0 .9-8.6-2.1-18.2-7.2-25.1-.2-.2-.6.1-.4.3zm6.7 3.1c3.4 6.9 4.7 13.4 6.4 20.7.1.2.4.2.4-.1.3-7.2-2.7-14.9-6.4-20.9-.2-.2-.5 0-.4.3zm-26.2-4.1c-2-2.8-4.9-5.3-8.3-6.4-.2-.1-.4.3-.2.4 3.1 1.6 5.8 3.4 7.9 6.3.4.2.8 0 .6-.3zm.8-5.5c-4.1-8.5-15.1-10.7-23.2-7.1-10.4 4.6-15.2 16-15.1 26.8 0 .3.5.3.5 0 .9-9.5 4.1-19.1 12.6-24.4 8.7-5.4 18.9-3.4 24.8 4.9.2.3.6.1.4-.2zM57.1 78.1c-1.1 7.7-.5 15.6 2.5 22.8.1.3.5.1.5-.2-1.9-7.5-3-14.7-2.5-22.5.1-.3-.4-.4-.5-.1zm4 27.2c-.1-6.1 0-12.1 0-18.2 0-.3-.5-.4-.5-.1-.9 6-.8 12.3 0 18.4 0 .3.5.2.5-.1zm-9.6-43.8C54.3 54.2 58 47.4 64 42.1c6-5.3 13-8.1 20.6-10.2.2-.1.2-.5-.1-.5C69 33.2 54.7 46.3 51.3 61.5c-.1.1.1.2.2 0zm.3 1.5c2.5-4.3 5.3-7.8 8.8-11.4.2-.3-.1-.8-.4-.5-3.9 2.8-7.2 7.2-9 11.7-.2.2.4.5.6.2zm-1.2 22.9c1.1-10.6 4.4-20.1 9.6-29.3.2-.3-.2-.5-.4-.2-5.9 8.8-9.1 19.1-9.8 29.6-.1.3.6.3.6-.1zm51.2-51c1.2-1.5 2.6-2.9 4.3-4 1.7-1.1 3.6-1.5 5.5-2.1.3-.1.3-.6-.1-.6-4.1-.1-8.2 2.9-10.1 6.4-.1.2.2.5.4.3zm6.6-1.8c17.1-3.6 30.8 12.9 36.2 27.1.1.4.7.2.6-.2-3.8-14.4-20.6-32.6-37-27.6-.4.2-.3.8.2.7zm31.9 28.5c1.6 1.7 3.3 3.4 4.7 5.3 1.3 1.7 2.4 3.6 3.8 5.3.2.2.5 0 .4-.2-1.4-4-5.2-8.1-8.5-10.8-.3-.2-.7.2-.4.4zm2.8 3.1c3.6 7.4 4 13.7 3.7 21.8 0 .3.4.3.5.1 2.4-7.1.3-16-3.7-22.1-.3-.4-.7-.2-.5.2zm-5.3 12.4c2.3 8.7 2.7 17.2 2.2 26.2 0 .3.6.4.6.1 1.4-8.8.3-17.9-2.4-26.4 0-.2-.4-.1-.4.1zM102 49.5c8.8-11.4 22.7-5.1 28.8 5.1.2.3.6 0 .4-.3-5.2-11-22.1-17.7-29.7-5.1-.1.4.3.6.5.3zm-.9-9.3c-.8-1.2-2-2.5-3.4-3-.2-.1-.3.2-.2.4.6.5 1.3.8 1.9 1.3.6.5 1 1 1.5 1.5.1.1.3-.1.2-.2zm37 25.1c2.7 6.8 3.6 13.8 4 21.1 0 .3.5.3.5 0 .4-7.4-1.3-14.4-4.1-21.2-.1-.2-.5-.1-.4.1z" fill="#cfb89a" stroke-width="none" opacity="1"></path><path id="SvgjsPath17215" d="M98.1 54.6c-5.3-8.5-17.3-8.2-22.7-.1-.1.1.1.3.2.2 6.2-7.3 15.9-6.8 22 .3.2.3.7-.1.5-.4zM81.2 56c-2.6 4.5-3.8 9.4-3.3 14.6 0 .3.4.3.4 0 .1-5 1.1-9.9 3.2-14.5.1-.1-.2-.2-.3-.1zm17.3-7.7c-4.7-8.9-15.9-9.5-23.5-3.9C64.8 52 63.6 66.2 63.6 77.9c0 .3.4.3.5 0 .7-9.3.9-19.1 6.2-27.2 6.2-9.6 21.4-14.1 27.9-2.1.1.1.5-.1.3-.3zm-5.4-11c-7-2.5-15.3-1.5-20.8 3.7-.2.2.1.5.3.4 6.4-4 13-5.8 20.4-3.7.2.1.3-.3.1-.4zm-4.7-3.9c-1.8-.5-3.8-.5-5.6.3-.2.1-.1.4.1.3 1.8-.5 3.5-.7 5.3-.2.4.1.5-.3.2-.4zm13.9 20.1c4.9-3.9 10.2-5.2 16.3-4.6.4 0 .4-.5.1-.6-5.9-1.6-12.6.5-16.9 4.7-.3.3.2.8.5.5zm2.2-4.6c1.6-1.4 3.3-1.9 5.3-2.3.2-.1.2-.4-.1-.4-2.1 0-4.1 1.1-5.6 2.5-.2.1.2.4.4.2zm0-6.7c5.2-4.3 11.5-4.8 17.7-2.5.3.1.6-.4.2-.6-5.9-3.4-13.5-1.9-18.3 2.7-.2.3.2.6.4.4zm5.1-6c1.3-.9 2.9-1.2 4.5-1 .3 0 .3-.4.1-.5-1.7-.4-3.4.1-4.8 1.1-.3.2-.1.6.2.4zm27.9 24.3c4.4 9.2 5.4 17.8 6 27.8 0 .2.3.3.4.1 1.5-9.5-1.4-19.8-5.9-28.1-.2-.3-.6-.1-.5.2zm5.1-3c.4 1.4.7 3.1 1.4 4.4.1.3.5.1.5-.2-.2-1.5-.9-2.9-1.4-4.3-.2-.3-.6-.2-.5.1zM59.7 91c-.1-2.9-.1-5.8-.2-8.7 0-.2-.2-.2-.2 0 0 2.9.1 5.8.2 8.7-.1.2.2.2.2 0z" fill="#ede8e1" stroke-width="none" opacity="1"></path></g><g id="svga-group-glasses-single-move" transform="matrix(1,0,0,1,0,0)"><g id="svga-group-glasses-single" transform="matrix(1,0,0,1,0,0)"><path id="SvgjsPath17122" d="M79.9 76.8C88.8 76.8 96 84 96 92.9S88.8 109 79.9 109s-16.1-7.2-16.1-16.1S71 76.8 79.9 76.8z" fill="url(#SvgjsLinearGradient17123)" opacity="1"></path><path id="SvgjsPath17130" d="M120.1 76.8c8.9 0 16.1 7.2 16.1 16.1S129 109 120.1 109 104 101.7 104 92.9s7.2-16.1 16.1-16.1z" fill="url(#SvgjsLinearGradient17131)" opacity="1"></path><path id="SvgjsPath17138" d="M139.98 89.26c-2.15-.06-3.62-1.72-4.36-2.83-2.53-6.09-8.54-10.38-15.53-10.38-7.55 0-13.95 5-16.07 11.87-.23.02-.51 0-.86-.08-1.25-.29-2.11-1.06-3.17-1.06s-1.9.77-3.15 1.06c-.35.08-.63.1-.86.08-2.12-6.87-8.52-11.87-16.07-11.87-6.99 0-13 4.29-15.53 10.38-.75 1.11-2.22 2.78-4.36 2.83 0 0-.31 2.48-.08 4.65 0 0 2.55.42 3.62 2.8 1.75 7.42 8.41 12.97 16.35 12.97 8.98 0 16.32-7.08 16.77-15.95.76-2.24 1.87-3.2 2.6-3.6.44-.24.98-.24 1.42 0 .73.4 1.86 1.36 2.62 3.6.46 8.87 7.79 15.95 16.77 15.95 7.95 0 14.61-5.55 16.35-12.97 1.07-2.39 3.62-2.8 3.62-2.8.23-2.17-.08-4.65-.08-4.65zm-58.07 18.79c-10.01 1.27-18.46-7.18-17.18-17.19.87-6.82 6.37-12.32 13.19-13.19 10-1.27 18.45 7.18 17.18 17.18-.87 6.83-6.37 12.33-13.19 13.2zm40.17 0c-10.01 1.27-18.46-7.18-17.18-17.19.87-6.82 6.37-12.32 13.19-13.19 10-1.27 18.45 7.18 17.18 17.18-.86 6.83-6.37 12.33-13.19 13.2z" fill="#c20b0b" stroke-width="none" opacity="1"></path><path id="SvgjsPath17139" d="M139.97 89.28c-.88-.01-1.79-.34-2.52-.86-.75-.52-1.36-1.21-1.88-1.95v-.02a17.025 17.025 0 0 0-6.54-7.67 16.57 16.57 0 0 0-9.71-2.55c-3.39.16-6.72 1.4-9.39 3.5-2.68 2.08-4.68 5-5.69 8.24l-.05.15-.15.01c-.78.05-1.48-.23-2.13-.52-.65-.29-1.26-.63-1.9-.63-.64-.01-1.26.33-1.91.62-.65.29-1.35.56-2.13.5l-.13-.01-.04-.13c-.99-3.25-3.01-6.17-5.69-8.26a16.61 16.61 0 0 0-9.41-3.51c-3.4-.19-6.85.72-9.73 2.55-2.89 1.81-5.2 4.55-6.5 7.71v.01l-.01.01c-.51.75-1.12 1.45-1.87 1.98-.74.53-1.64.88-2.57.91l.1-.09c-.16 1.53-.22 3.09-.06 4.62l-.1-.1c.8.16 1.55.5 2.2.99.66.48 1.17 1.14 1.52 1.87v.02c.92 3.87 3.29 7.35 6.51 9.66 3.21 2.33 7.26 3.44 11.2 3.05 3.94-.36 7.71-2.18 10.43-5.04 2.75-2.84 4.41-6.68 4.62-10.63v-.03l.01-.03c.29-.85.67-1.68 1.23-2.41.28-.36.6-.7.97-.98.35-.27.81-.56 1.34-.55.53-.01.99.28 1.34.55.37.28.69.62.97.98.56.73.95 1.56 1.24 2.41l.01.03v.03c.21 3.94 1.88 7.78 4.63 10.61 2.71 2.86 6.48 4.71 10.42 5.07 3.94.4 8.01-.72 11.22-3.05 3.23-2.31 5.59-5.8 6.53-9.67v-.02c.35-.73.86-1.38 1.51-1.85.65-.48 1.39-.81 2.18-.97l-.04.07c.08-.77.11-1.54.1-2.32-.01-.39-.02-.77-.04-1.16l-.09-1.14zm.03-.04c.06.42.09.78.12 1.18.03.39.05.78.06 1.16.02.78.01 1.56-.06 2.33v.04l-.05.01c-.76.16-1.49.5-2.11.98-.63.46-1.11 1.1-1.43 1.8l.01-.02c-.89 3.93-3.28 7.49-6.54 9.87-3.25 2.4-7.39 3.58-11.43 3.2-4.04-.34-7.93-2.2-10.74-5.13a17.156 17.156 0 0 1-4.75-10.93l.01.07c-.28-.81-.64-1.6-1.16-2.27-.26-.33-.55-.64-.88-.89-.34-.26-.68-.47-1.05-.45-.37-.01-.71.19-1.05.45-.33.25-.62.56-.88.89-.52.67-.88 1.46-1.16 2.27l.01-.06c-.21 4.06-1.94 8.01-4.76 10.92-2.8 2.93-6.68 4.81-10.73 5.16-4.04.38-8.19-.8-11.44-3.2a17.182 17.182 0 0 1-6.56-9.88l.01.02c-.32-.7-.81-1.32-1.43-1.78-.61-.47-1.34-.8-2.09-.96l-.09-.02-.01-.08c-.15-1.56-.08-3.12.09-4.67l.01-.09h.09c.88-.02 1.74-.34 2.46-.86.73-.51 1.33-1.19 1.83-1.92l-.01.02c1.34-3.18 3.66-5.93 6.57-7.79 2.9-1.87 6.39-2.81 9.85-2.65 3.45.14 6.86 1.38 9.6 3.51 2.75 2.11 4.83 5.08 5.86 8.4l-.17-.15c.64.04 1.31-.2 1.93-.48.62-.28 1.29-.66 2.07-.66.79.01 1.45.38 2.08.65.62.28 1.29.51 1.92.47l-.19.16c1.02-3.33 3.12-6.3 5.87-8.42a16.9 16.9 0 0 1 9.62-3.52c3.46-.17 6.96.78 9.87 2.65 2.92 1.86 5.23 4.64 6.52 7.84l-.01-.01c.5.74 1.09 1.43 1.82 1.95a4.7 4.7 0 0 0 2.5.89z" fill="#a30000" stroke-width="none" opacity="1"></path><path id="SvgjsPath17140" d="M81.91 108.07c-3.97.47-8.17-.49-11.41-2.96-3.24-2.42-5.5-6.19-5.95-10.24-.22-2.01-.11-4.07.43-6.02.53-1.95 1.46-3.79 2.72-5.37 1.26-1.57 2.76-2.96 4.51-3.97 1.74-1.02 3.68-1.7 5.68-1.98 4-.5 8.25.48 11.47 3.01 3.22 2.47 5.49 6.23 5.97 10.3.1.5.07 1.02.11 1.52.05.51.01 1.02-.03 1.52-.05 1.01-.19 2.03-.5 3.01-.54 1.96-1.49 3.8-2.76 5.38-2.48 3.2-6.26 5.29-10.24 5.8zm-.01-.05c1.98-.28 3.91-.94 5.62-1.96 1.72-1.01 3.2-2.4 4.4-3.98 2.45-3.16 3.38-7.28 2.91-11.18-.49-3.92-2.64-7.56-5.74-9.99-3.1-2.47-7.2-3.54-11.15-3.11-3.93.5-7.7 2.58-10.08 5.79-1.21 1.58-2.1 3.4-2.59 5.33-.5 1.92-.58 3.94-.34 5.9.53 3.94 2.68 7.56 5.76 10.04 3.09 2.54 7.24 3.62 11.21 3.16z" fill="#a30000" stroke-width="none" opacity="1"></path><path id="SvgjsPath17141" d="M122.09 108.07c-3.97.47-8.17-.49-11.41-2.96-3.24-2.42-5.5-6.19-5.95-10.24-.22-2.01-.11-4.07.43-6.02.53-1.95 1.46-3.79 2.72-5.37 1.26-1.57 2.76-2.96 4.51-3.97 1.74-1.02 3.68-1.7 5.68-1.98 4-.5 8.25.48 11.47 3.01 3.22 2.47 5.49 6.23 5.97 10.3.1.5.07 1.02.11 1.52.05.51.01 1.02-.03 1.52-.05 1.01-.19 2.03-.5 3.01-.54 1.96-1.49 3.8-2.76 5.38-2.48 3.2-6.26 5.29-10.24 5.8zm-.01-.05c1.98-.28 3.91-.94 5.62-1.96 1.72-1.01 3.2-2.4 4.4-3.98 2.45-3.16 3.38-7.28 2.91-11.18-.49-3.92-2.64-7.56-5.74-9.99-3.1-2.47-7.2-3.54-11.15-3.11-3.93.5-7.7 2.58-10.08 5.79-1.21 1.58-2.1 3.4-2.59 5.33-.5 1.92-.58 3.94-.34 5.9.53 3.94 2.68 7.56 5.76 10.04 3.08 2.54 7.24 3.62 11.21 3.16z" fill="#a30000" stroke-width="none" opacity="1"></path></g></g></g></g></g><rect id="svga-credit-rect" width="200" height="15" x="0" y="185" fill="#ecf0f1" opacity="0.5" style="display: none;"></rect><text id="svga-credit-text" font-family="Avenir Next, Roboto, Helvetica, Arial, sans-serif" font-size="10px" text-anchor="start" font-weight="400" size="10px" anchor="start" weight="400" fill="#333333" x="33.40447998046875" y="182.60824704170227" style="display: none;"><tspan id="SvgjsTspan16449" dy="13" x="33.40447998046875">Created on AvatarMaker.com</tspan></text></g></svg>